<?xml version="1.0" standalone="no"?>
<!DOCTYPE svg PUBLIC "-//W3C//DTD SVG 20010904//EN"
 "http://www.w3.org/TR/2001/REC-SVG-20010904/DTD/svg10.dtd">
<svg version="1.0" xmlns="http://www.w3.org/2000/svg"
 width="1600.000000pt" height="1190.000000pt" viewBox="0 0 1600.000000 1190.000000"
 preserveAspectRatio="xMidYMid meet">

<g transform="translate(0.000000,1190.000000) scale(0.100000,-0.100000)"
fill="#000000" stroke="none">
<path d="M1053 10877 l-93 -52 0 -52 c0 -29 2 -53 6 -53 3 0 47 24 98 54 l94
54 43 -25 c24 -13 68 -38 97 -55 l52 -29 0 54 0 55 -90 51 c-49 28 -96 51
-102 51 -7 -1 -55 -24 -105 -53z"/>
<path d="M10050 10785 c0 -32 2 -56 4 -54 8 7 10 98 3 105 -4 4 -7 -19 -7 -51z"/>
<path d="M10121 10801 c-1 -39 -3 -42 -18 -30 -13 11 -13 8 3 -16 l19 -29 3
32 c2 18 1 45 -1 60 -3 18 -4 13 -6 -17z"/>
<path d="M10729 10823 c0 -10 -1 -33 -2 -51 -1 -19 1 -36 5 -39 5 -2 8 21 8
51 0 31 -2 56 -5 56 -3 0 -5 -8 -6 -17z"/>
<path d="M11129 10825 c-7 -31 5 -88 19 -91 7 -1 8 0 2 3 -15 7 -13 63 3 63 8
0 9 3 1 8 -6 4 -13 14 -16 22 -3 11 -6 9 -9 -5z"/>
<path d="M11228 10823 c-2 -10 -1 -36 3 -58 l6 -40 2 38 c0 22 6 37 14 37 9 0
8 3 -2 9 -7 5 -10 14 -7 20 4 6 3 11 -2 11 -5 0 -11 -8 -14 -17z"/>
<path d="M11529 10823 c0 -10 -1 -33 -2 -51 -1 -19 1 -36 5 -39 5 -2 8 21 8
51 0 31 -2 56 -5 56 -3 0 -5 -8 -6 -17z"/>
<path d="M11813 10800 c0 -25 2 -35 4 -22 2 12 2 32 0 45 -2 12 -4 2 -4 -23z"/>
<path d="M11850 10821 c-15 -29 -12 -56 8 -74 24 -22 46 -22 63 0 13 15 12 15
-9 2 -44 -27 -84 37 -47 75 9 9 12 16 6 16 -6 0 -15 -9 -21 -19z"/>
<path d="M11905 10830 c3 -5 11 -10 16 -10 6 0 7 5 4 10 -3 6 -11 10 -16 10
-6 0 -7 -4 -4 -10z"/>
<path d="M12011 10823 c0 -11 3 -13 6 -5 2 6 16 12 29 12 17 0 23 -4 18 -12
-4 -7 -3 -8 4 -4 23 14 12 26 -23 26 -27 0 -35 -4 -34 -17z"/>
<path d="M12188 10823 c-2 -10 -1 -36 3 -58 l6 -40 2 38 c0 22 6 37 14 37 9 0
8 3 -2 9 -7 5 -10 14 -7 20 4 6 3 11 -2 11 -5 0 -11 -8 -14 -17z"/>
<path d="M12338 10823 c-2 -10 -1 -36 3 -58 l6 -40 2 38 c0 22 6 37 14 37 9 0
8 3 -2 9 -7 5 -10 14 -7 20 4 6 3 11 -2 11 -5 0 -11 -8 -14 -17z"/>
<path d="M12557 10819 c4 -13 8 -18 11 -10 2 7 -1 18 -6 23 -8 8 -9 4 -5 -13z"/>
<path d="M12665 10820 c-8 -24 10 -50 34 -49 11 0 9 3 -6 9 -25 10 -30 29 -11
48 9 9 9 12 1 12 -7 0 -15 -9 -18 -20z"/>
<path d="M12716 10827 c3 -10 9 -15 12 -12 3 3 0 11 -7 18 -10 9 -11 8 -5 -6z"/>
<path d="M12861 10823 c0 -11 3 -13 6 -5 2 6 16 12 29 12 17 0 23 -4 18 -12
-4 -7 -3 -8 4 -4 23 14 12 26 -23 26 -27 0 -35 -4 -34 -17z"/>
<path d="M12973 10833 c9 -2 23 -2 30 0 6 3 -1 5 -18 5 -16 0 -22 -2 -12 -5z"/>
<path d="M13158 10805 c4 -30 1 -35 -17 -35 -14 0 -20 4 -15 12 4 7 3 8 -4 4
-20 -12 -13 -26 13 -26 17 0 25 -6 26 -17 0 -14 2 -15 6 -3 3 8 11 18 17 22 8
5 7 8 -1 8 -8 0 -13 14 -13 35 0 19 -4 35 -8 35 -4 0 -6 -16 -4 -35z"/>
<path d="M13257 10819 c4 -14 -4 -31 -28 -55 l-33 -34 40 1 c35 1 36 2 11 8
l-29 6 26 24 c26 25 34 55 17 65 -5 4 -7 -3 -4 -15z"/>
<path d="M13347 10819 c4 -14 -4 -31 -28 -55 l-33 -34 40 1 c35 1 36 2 11 8
l-29 6 26 24 c26 25 34 55 17 65 -5 4 -7 -3 -4 -15z"/>
<path d="M13437 10819 c4 -13 8 -18 11 -10 2 7 -1 18 -6 23 -8 8 -9 4 -5 -13z"/>
<path d="M13645 10820 c-8 -24 10 -50 34 -49 11 0 9 3 -6 9 -25 10 -30 29 -11
48 9 9 9 12 1 12 -7 0 -15 -9 -18 -20z"/>
<path d="M13696 10827 c3 -10 9 -15 12 -12 3 3 0 11 -7 18 -10 9 -11 8 -5 -6z"/>
<path d="M13750 10821 c-12 -24 -13 -51 0 -71 6 -10 8 -4 4 21 -4 26 -1 40 11
52 9 9 12 17 6 17 -6 0 -15 -9 -21 -19z"/>
<path d="M13797 10830 c6 -8 13 -28 16 -45 l4 -30 2 31 c0 20 -6 37 -16 45
-16 12 -16 12 -6 -1z"/>
<path d="M14108 10823 c-2 -10 -1 -36 3 -58 l6 -40 2 38 c0 22 6 37 14 37 9 0
8 3 -2 9 -7 5 -10 14 -7 20 4 6 3 11 -2 11 -5 0 -11 -8 -14 -17z"/>
<path d="M14307 10819 c4 -13 8 -18 11 -10 2 7 -1 18 -6 23 -8 8 -9 4 -5 -13z"/>
<path d="M14388 10805 c4 -30 1 -35 -17 -35 -14 0 -20 4 -15 12 4 7 3 8 -4 4
-20 -12 -13 -26 13 -26 17 0 25 -6 26 -17 0 -14 2 -15 6 -3 3 8 11 18 17 22 8
5 7 8 -1 8 -8 0 -13 14 -13 35 0 19 -4 35 -8 35 -4 0 -6 -16 -4 -35z"/>
<path d="M14533 10833 c9 -2 23 -2 30 0 6 3 -1 5 -18 5 -16 0 -22 -2 -12 -5z"/>
<path d="M14610 10821 c-12 -24 -13 -51 0 -71 6 -10 8 -4 4 21 -4 26 -1 40 11
52 9 9 12 17 6 17 -6 0 -15 -9 -21 -19z"/>
<path d="M14657 10830 c6 -8 13 -28 16 -45 l4 -30 2 31 c0 20 -6 37 -16 45
-16 12 -16 12 -6 -1z"/>
<path d="M14757 10819 c4 -14 -4 -31 -28 -55 l-33 -34 40 1 c35 1 36 2 11 8
l-29 6 26 24 c26 25 34 55 17 65 -5 4 -7 -3 -4 -15z"/>
<path d="M14847 10819 c4 -14 -4 -31 -28 -55 l-33 -34 40 1 c35 1 36 2 11 8
l-29 6 26 24 c26 25 34 55 17 65 -5 4 -7 -3 -4 -15z"/>
<path d="M15019 10823 c0 -10 -1 -33 -2 -51 -1 -19 1 -36 5 -39 5 -2 8 21 8
51 0 31 -2 56 -5 56 -3 0 -5 -8 -6 -17z"/>
<path d="M12390 10820 c-13 -8 -12 -10 3 -10 9 0 17 5 17 10 0 12 -1 12 -20 0z"/>
<path d="M12450 10820 c-13 -8 -12 -10 3 -10 9 0 17 5 17 10 0 12 -1 12 -20 0z"/>
<path d="M10288 10803 c6 -2 12 -12 12 -21 0 -15 2 -15 10 -2 9 15 -4 30 -25
29 -5 0 -4 -3 3 -6z"/>
<path d="M10337 10803 c6 -4 13 -24 16 -43 4 -34 4 -33 3 4 -1 26 -6 41 -16
43 -10 3 -11 2 -3 -4z"/>
<path d="M10410 10806 c0 -2 9 -6 20 -9 11 -3 18 -1 14 4 -5 9 -34 13 -34 5z"/>
<path d="M10550 10795 c-26 -31 13 -82 44 -56 19 16 21 42 4 59 -16 16 -33 15
-48 -3z m45 -25 c0 -29 -32 -41 -41 -16 -9 24 4 48 23 44 12 -2 18 -12 18 -28z"/>
<path d="M10682 10798 c-22 -22 -7 -69 23 -68 5 0 2 5 -7 11 -10 5 -18 19 -18
29 0 10 8 24 18 29 9 6 12 11 7 11 -6 0 -16 -5 -23 -12z"/>
<path d="M10780 10806 c0 -2 9 -6 20 -9 11 -3 18 -1 14 4 -5 9 -34 13 -34 5z"/>
<path d="M10900 10795 c-15 -18 -10 -45 12 -59 12 -7 21 -7 28 0 8 8 4 10 -12
10 -18 -1 -23 4 -23 24 0 19 5 25 22 24 12 0 20 3 17 8 -8 13 -30 9 -44 -7z"/>
<path d="M10990 10806 c0 -2 9 -6 20 -9 11 -3 18 -1 14 4 -5 9 -34 13 -34 5z"/>
<path d="M11320 10795 c-15 -18 -10 -45 12 -59 12 -7 21 -7 28 0 8 8 4 10 -12
10 -18 -1 -23 4 -23 24 0 19 5 25 22 24 12 0 20 3 17 8 -8 13 -30 9 -44 -7z"/>
<path d="M11421 10804 c10 -3 17 -16 17 -30 0 -14 4 -30 9 -35 7 -7 8 3 4 28
-5 28 -11 38 -26 40 -13 1 -15 0 -4 -3z"/>
<path d="M11482 10798 c-22 -22 -7 -69 23 -68 5 0 2 5 -7 11 -10 5 -18 19 -18
29 0 10 8 24 18 29 9 6 12 11 7 11 -6 0 -16 -5 -23 -12z"/>
<path d="M11570 10795 c-26 -31 13 -82 44 -56 19 16 21 42 4 59 -16 16 -33 15
-48 -3z m45 -25 c0 -29 -32 -41 -41 -16 -9 24 4 48 23 44 12 -2 18 -12 18 -28z"/>
<path d="M12131 10804 c10 -3 17 -16 17 -30 0 -14 4 -30 9 -35 7 -7 8 3 4 28
-5 28 -11 38 -26 40 -13 1 -15 0 -4 -3z"/>
<path d="M12284 10799 c-3 -6 2 -18 12 -27 17 -16 17 -16 5 0 -7 9 -10 22 -6
28 3 5 4 10 1 10 -3 0 -8 -5 -12 -11z"/>
<path d="M12814 10799 c-3 -6 2 -18 12 -27 17 -16 17 -16 5 0 -7 9 -10 22 -6
28 3 5 4 10 1 10 -3 0 -8 -5 -12 -11z"/>
<path d="M13594 10799 c-3 -6 2 -18 12 -27 17 -16 17 -16 5 0 -7 9 -10 22 -6
28 3 5 4 10 1 10 -3 0 -8 -5 -12 -11z"/>
<path d="M13894 10799 c-3 -6 2 -18 12 -27 17 -16 17 -16 5 0 -7 9 -10 22 -6
28 3 5 4 10 1 10 -3 0 -8 -5 -12 -11z"/>
<path d="M14151 10792 c-1 -13 4 -32 9 -43 11 -19 44 -26 54 -10 3 4 -5 6 -18
4 -28 -6 -43 22 -24 45 8 10 9 13 1 9 -6 -4 -14 -1 -16 5 -3 7 -6 3 -6 -10z"/>
<path d="M14440 10795 c-15 -18 -10 -45 12 -59 12 -7 21 -7 28 0 8 8 4 10 -12
10 -18 -1 -23 4 -23 24 0 19 5 25 22 24 12 0 20 3 17 8 -8 13 -30 9 -44 -7z"/>
<path d="M14890 10795 c-15 -18 -10 -45 12 -59 12 -7 21 -7 28 0 8 8 4 10 -12
10 -18 -1 -23 4 -23 24 0 19 5 25 22 24 12 0 20 3 17 8 -8 13 -30 9 -44 -7z"/>
<path d="M14972 10798 c-22 -22 -7 -69 23 -68 5 0 2 5 -7 11 -10 5 -18 19 -18
29 0 10 8 24 18 29 9 6 12 11 7 11 -6 0 -16 -5 -23 -12z"/>
<path d="M10162 10780 c0 -14 2 -19 5 -12 2 6 2 18 0 25 -3 6 -5 1 -5 -13z"/>
<path d="M12546 10790 c7 -8 14 -24 17 -35 4 -19 5 -19 6 1 0 12 -7 28 -16 35
-16 12 -17 12 -7 -1z"/>
<path d="M12950 10789 c0 -5 5 -7 10 -4 6 3 10 8 10 11 0 2 -4 4 -10 4 -5 0
-10 -5 -10 -11z"/>
<path d="M13008 10773 c5 -21 7 -23 10 -9 2 10 0 22 -6 28 -6 6 -7 0 -4 -19z"/>
<path d="M13426 10790 c7 -8 14 -24 17 -35 4 -19 5 -19 6 1 0 12 -7 28 -16 35
-16 12 -17 12 -7 -1z"/>
<path d="M14072 10770 c0 -19 2 -27 5 -17 2 9 2 25 0 35 -3 9 -5 1 -5 -18z"/>
<path d="M14296 10790 c7 -8 14 -24 17 -35 4 -19 5 -19 6 1 0 12 -7 28 -16 35
-16 12 -17 12 -7 -1z"/>
<path d="M14510 10789 c0 -5 5 -7 10 -4 6 3 10 8 10 11 0 2 -4 4 -10 4 -5 0
-10 -5 -10 -11z"/>
<path d="M14568 10773 c5 -21 7 -23 10 -9 2 10 0 22 -6 28 -6 6 -7 0 -4 -19z"/>
<path d="M10391 10775 c-1 -25 17 -45 39 -44 10 0 9 3 -5 8 -11 4 -23 19 -26
32 -6 21 -7 21 -8 4z"/>
<path d="M10761 10775 c-1 -25 17 -45 39 -44 10 0 9 3 -5 8 -11 4 -23 19 -26
32 -6 21 -7 21 -8 4z"/>
<path d="M10971 10775 c-1 -25 17 -45 39 -44 10 0 9 3 -5 8 -11 4 -23 19 -26
32 -6 21 -7 21 -8 4z"/>
<path d="M1760 10680 l0 -100 -42 21 c-33 17 -55 20 -108 17 -84 -4 -135 -36
-175 -109 -24 -45 -27 -59 -23 -124 3 -63 8 -80 34 -117 62 -89 190 -122 277
-71 36 22 37 22 37 3 0 -17 7 -20 50 -20 l50 0 0 300 0 300 -50 0 -50 0 0
-100z m-41 -177 c61 -47 65 -141 6 -200 -28 -28 -40 -33 -80 -33 -81 0 -135
52 -135 130 0 105 124 166 209 103z"/>
<path d="M11958 10773 c6 -2 18 -2 25 0 6 3 1 5 -13 5 -14 0 -19 -2 -12 -5z"/>
<path d="M12041 10773 c-1 -6 -4 -20 -7 -30 -5 -17 -5 -17 6 0 6 10 9 23 6 30
-3 9 -5 9 -5 0z"/>
<path d="M12598 10773 c6 -2 18 -2 25 0 6 3 1 5 -13 5 -14 0 -19 -2 -12 -5z"/>
<path d="M12891 10773 c-1 -6 -4 -20 -7 -30 -5 -17 -5 -17 6 0 6 10 9 23 6 30
-3 9 -5 9 -5 0z"/>
<path d="M13048 10773 c6 -2 18 -2 25 0 6 3 1 5 -13 5 -14 0 -19 -2 -12 -5z"/>
<path d="M13478 10773 c6 -2 18 -2 25 0 6 3 1 5 -13 5 -14 0 -19 -2 -12 -5z"/>
<path d="M13948 10773 c6 -2 18 -2 25 0 6 3 1 5 -13 5 -14 0 -19 -2 -12 -5z"/>
<path d="M11395 10760 c-9 -15 4 -30 23 -29 15 1 14 2 -1 6 -11 3 -16 11 -13
19 6 16 0 19 -9 4z"/>
<path d="M12105 10760 c-9 -15 4 -30 23 -29 15 1 14 2 -1 6 -11 3 -16 11 -13
19 6 16 0 19 -9 4z"/>
<path d="M12230 10764 c0 -26 51 -46 64 -25 4 5 -4 7 -15 4 -15 -4 -27 0 -35
12 -8 11 -14 14 -14 9z"/>
<path d="M12760 10764 c0 -26 51 -46 64 -25 4 5 -4 7 -15 4 -15 -4 -27 0 -35
12 -8 11 -14 14 -14 9z"/>
<path d="M13540 10764 c0 -26 51 -46 64 -25 4 5 -4 7 -15 4 -15 -4 -27 0 -35
12 -8 11 -14 14 -14 9z"/>
<path d="M13840 10764 c0 -26 51 -46 64 -25 4 5 -4 7 -15 4 -15 -4 -27 0 -35
12 -8 11 -14 14 -14 9z"/>
<path d="M11749 10748 c14 -19 46 -24 55 -9 4 5 -3 7 -14 4 -11 -3 -28 1 -38
8 -15 13 -16 12 -3 -3z"/>
<path d="M12512 10744 c9 -9 21 -15 27 -13 6 2 -2 10 -17 17 -25 11 -25 11
-10 -4z"/>
<path d="M12714 10749 c-3 -6 -15 -9 -25 -6 -11 3 -17 1 -13 -4 8 -14 30 -11
44 6 7 8 10 15 7 15 -3 0 -9 -5 -13 -11z"/>
<path d="M12962 10744 c9 -9 21 -15 27 -13 6 2 -2 10 -17 17 -25 11 -25 11
-10 -4z"/>
<path d="M13392 10744 c9 -9 21 -15 27 -13 6 2 -2 10 -17 17 -25 11 -25 11
-10 -4z"/>
<path d="M13694 10749 c-3 -6 -15 -9 -25 -6 -11 3 -17 1 -13 -4 8 -14 30 -11
44 6 7 8 10 15 7 15 -3 0 -9 -5 -13 -11z"/>
<path d="M14262 10744 c9 -9 21 -15 27 -13 6 2 -2 10 -17 17 -25 11 -25 11
-10 -4z"/>
<path d="M14522 10744 c9 -9 21 -15 27 -13 6 2 -2 10 -17 17 -25 11 -25 11
-10 -4z"/>
<path d="M10177 10739 c7 -7 15 -10 18 -7 3 3 -2 9 -12 12 -14 6 -15 5 -6 -5z"/>
<path d="M14645 10740 c-16 -7 -17 -9 -3 -9 9 -1 20 4 23 9 7 11 7 11 -20 0z"/>
<path d="M2085 10621 c-126 -33 -193 -147 -164 -282 23 -108 133 -180 252
-165 56 8 113 34 140 64 17 19 17 20 -18 41 l-36 21 -39 -20 c-22 -11 -53 -20
-70 -20 -64 0 -130 47 -130 92 0 17 14 18 165 18 l165 0 0 50 c0 75 -46 151
-111 185 -33 18 -115 26 -154 16z m138 -121 c15 -16 27 -35 27 -40 0 -6 -46
-10 -115 -10 -63 0 -115 3 -115 8 0 18 35 55 64 68 48 22 106 11 139 -26z"/>
<path d="M2543 10601 c-27 -17 -33 -18 -33 -6 0 11 -13 15 -55 15 l-55 0 2
-212 3 -213 53 -3 52 -3 0 149 c0 144 1 150 25 176 13 14 35 26 49 26 73 0 86
-32 86 -210 l0 -140 49 0 50 0 3 149 c3 142 4 151 27 175 34 36 82 35 110 0
19 -24 21 -40 21 -175 l0 -149 56 0 56 0 -4 168 c-5 186 -13 217 -71 252 -48
30 -134 27 -181 -5 -45 -30 -44 -30 -73 -3 -34 32 -126 37 -170 9z"/>
<path d="M960 10468 c0 -168 9 -206 55 -247 90 -79 251 -62 313 32 26 39 27
47 31 199 l3 158 -56 0 -56 0 0 -145 c0 -142 -1 -147 -25 -170 -33 -34 -93
-34 -132 -1 -28 24 -28 24 -31 170 l-4 146 -49 0 -49 0 0 -142z"/>
<path d="M3053 10598 c3 -7 42 -104 87 -215 59 -145 81 -209 76 -227 -11 -42
-55 -86 -87 -86 -28 0 -29 -2 -29 -45 l0 -45 43 0 c52 0 97 26 126 73 16 26
165 367 238 545 4 9 -9 12 -48 12 l-54 0 -59 -145 c-32 -80 -62 -147 -66 -150
-4 -2 -34 63 -66 145 l-59 150 -54 0 c-38 0 -52 -3 -48 -12z"/>
<path d="M9913 10510 c0 -25 2 -35 4 -22 2 12 2 32 0 45 -2 12 -4 2 -4 -23z"/>
<path d="M10139 10533 c0 -10 -1 -33 -2 -51 -1 -19 1 -36 5 -39 5 -2 8 21 8
51 0 31 -2 56 -5 56 -3 0 -5 -8 -6 -17z"/>
<path d="M10579 10535 c-7 -31 5 -88 19 -91 7 -1 8 0 2 3 -15 7 -13 63 3 63 8
0 9 3 1 8 -6 4 -13 14 -16 22 -3 11 -6 9 -9 -5z"/>
<path d="M10678 10533 c-2 -10 -1 -36 3 -58 l6 -40 2 38 c0 22 6 37 14 37 9 0
8 3 -2 9 -7 5 -10 14 -7 20 4 6 3 11 -2 11 -5 0 -11 -8 -14 -17z"/>
<path d="M10979 10533 c0 -10 -1 -33 -2 -51 -1 -19 1 -36 5 -39 5 -2 8 21 8
51 0 31 -2 56 -5 56 -3 0 -5 -8 -6 -17z"/>
<path d="M11289 10533 c0 -10 -1 -33 -2 -51 -1 -19 1 -36 5 -39 5 -2 8 21 8
51 0 31 -2 56 -5 56 -3 0 -5 -8 -6 -17z"/>
<path d="M11813 10510 c0 -25 2 -35 4 -22 2 12 2 32 0 45 -2 12 -4 2 -4 -23z"/>
<path d="M11850 10531 c-15 -29 -12 -56 8 -74 24 -22 46 -22 63 0 13 15 12 15
-9 2 -44 -27 -84 37 -47 75 9 9 12 16 6 16 -6 0 -15 -9 -21 -19z"/>
<path d="M11905 10540 c3 -5 11 -10 16 -10 6 0 7 5 4 10 -3 6 -11 10 -16 10
-6 0 -7 -4 -4 -10z"/>
<path d="M12011 10533 c0 -11 3 -13 6 -5 2 6 16 12 29 12 17 0 23 -4 18 -12
-4 -7 -3 -8 4 -4 23 14 12 26 -23 26 -27 0 -35 -4 -34 -17z"/>
<path d="M12188 10533 c-2 -10 -1 -36 3 -58 l6 -40 2 38 c0 22 6 37 14 37 9 0
8 3 -2 9 -7 5 -10 14 -7 20 4 6 3 11 -2 11 -5 0 -11 -8 -14 -17z"/>
<path d="M12338 10533 c-2 -10 -1 -36 3 -58 l6 -40 2 38 c0 22 6 37 14 37 9 0
8 3 -2 9 -7 5 -10 14 -7 20 4 6 3 11 -2 11 -5 0 -11 -8 -14 -17z"/>
<path d="M12557 10529 c4 -13 8 -18 11 -10 2 7 -1 18 -6 23 -8 8 -9 4 -5 -13z"/>
<path d="M12665 10530 c-8 -24 10 -50 34 -49 11 0 9 3 -6 9 -25 10 -30 29 -11
48 9 9 9 12 1 12 -7 0 -15 -9 -18 -20z"/>
<path d="M12716 10537 c3 -10 9 -15 12 -12 3 3 0 11 -7 18 -10 9 -11 8 -5 -6z"/>
<path d="M12861 10534 c0 -11 3 -14 6 -6 3 7 2 16 -1 19 -3 4 -6 -2 -5 -13z"/>
<path d="M12903 10543 c9 -2 14 -9 11 -15 -4 -7 -2 -8 4 -4 20 12 13 26 -10
25 -18 -1 -19 -2 -5 -6z"/>
<path d="M12973 10543 c9 -2 23 -2 30 0 6 3 -1 5 -18 5 -16 0 -22 -2 -12 -5z"/>
<path d="M13158 10515 c4 -30 1 -35 -17 -35 -14 0 -20 4 -15 12 4 7 3 8 -4 4
-20 -12 -13 -26 13 -26 17 0 25 -6 26 -17 0 -14 2 -15 6 -3 3 8 11 18 17 22 8
5 7 8 -1 8 -8 0 -13 14 -13 35 0 19 -4 35 -8 35 -4 0 -6 -16 -4 -35z"/>
<path d="M13257 10529 c4 -14 -4 -31 -28 -55 l-33 -34 40 1 c35 1 36 2 11 8
l-29 6 26 24 c26 25 34 55 17 65 -5 4 -7 -3 -4 -15z"/>
<path d="M13347 10529 c4 -14 -4 -31 -28 -55 l-33 -34 40 1 c35 1 36 2 11 8
l-29 6 26 24 c26 25 34 55 17 65 -5 4 -7 -3 -4 -15z"/>
<path d="M13437 10529 c4 -13 8 -18 11 -10 2 7 -1 18 -6 23 -8 8 -9 4 -5 -13z"/>
<path d="M13645 10530 c-8 -24 10 -50 34 -49 11 0 9 3 -6 9 -25 10 -30 29 -11
48 9 9 9 12 1 12 -7 0 -15 -9 -18 -20z"/>
<path d="M13696 10537 c3 -10 9 -15 12 -12 3 3 0 11 -7 18 -10 9 -11 8 -5 -6z"/>
<path d="M13750 10531 c-12 -24 -13 -51 0 -71 6 -10 8 -4 4 21 -4 26 -1 40 11
52 9 9 12 17 6 17 -6 0 -15 -9 -21 -19z"/>
<path d="M13797 10540 c6 -8 13 -28 16 -45 l4 -30 2 31 c0 20 -6 37 -16 45
-16 12 -16 12 -6 -1z"/>
<path d="M14108 10533 c-2 -10 -1 -36 3 -58 l6 -40 2 38 c0 22 6 37 14 37 9 0
8 3 -2 9 -7 5 -10 14 -7 20 4 6 3 11 -2 11 -5 0 -11 -8 -14 -17z"/>
<path d="M14307 10529 c4 -13 8 -18 11 -10 2 7 -1 18 -6 23 -8 8 -9 4 -5 -13z"/>
<path d="M14388 10515 c4 -30 1 -35 -17 -35 -14 0 -20 4 -15 12 4 7 3 8 -4 4
-20 -12 -13 -26 13 -26 17 0 25 -6 26 -17 0 -14 2 -15 6 -3 3 8 11 18 17 22 8
5 7 8 -1 8 -8 0 -13 14 -13 35 0 19 -4 35 -8 35 -4 0 -6 -16 -4 -35z"/>
<path d="M14533 10543 c9 -2 23 -2 30 0 6 3 -1 5 -18 5 -16 0 -22 -2 -12 -5z"/>
<path d="M14610 10531 c-12 -24 -13 -51 0 -71 6 -10 8 -4 4 21 -4 26 -1 40 11
52 9 9 12 17 6 17 -6 0 -15 -9 -21 -19z"/>
<path d="M14657 10540 c6 -8 13 -28 16 -45 l4 -30 2 31 c0 20 -6 37 -16 45
-16 12 -16 12 -6 -1z"/>
<path d="M14757 10529 c4 -14 -4 -31 -28 -55 l-33 -34 40 1 c35 1 36 2 11 8
l-29 6 26 24 c26 25 34 55 17 65 -5 4 -7 -3 -4 -15z"/>
<path d="M14847 10529 c4 -14 -4 -31 -28 -55 l-33 -34 40 1 c35 1 36 2 11 8
l-29 6 26 24 c26 25 34 55 17 65 -5 4 -7 -3 -4 -15z"/>
<path d="M15019 10533 c0 -10 -1 -33 -2 -51 -1 -19 1 -36 5 -39 5 -2 8 21 8
51 0 31 -2 56 -5 56 -3 0 -5 -8 -6 -17z"/>
<path d="M12390 10530 c-13 -8 -12 -10 3 -10 9 0 17 5 17 10 0 12 -1 12 -20 0z"/>
<path d="M12450 10530 c-13 -8 -12 -10 3 -10 9 0 17 5 17 10 0 12 -1 12 -20 0z"/>
<path d="M10092 10508 c-22 -22 -7 -69 23 -68 5 0 2 5 -7 11 -10 5 -18 19 -18
29 0 10 8 24 18 29 9 6 12 11 7 11 -6 0 -16 -5 -23 -12z"/>
<path d="M10190 10516 c0 -2 9 -6 20 -9 11 -3 18 -1 14 4 -5 9 -34 13 -34 5z"/>
<path d="M10350 10505 c-15 -18 -10 -45 12 -59 12 -7 21 -7 28 0 8 8 4 10 -12
10 -18 -1 -23 4 -23 24 0 19 5 25 22 24 12 0 20 3 17 8 -8 13 -30 9 -44 -7z"/>
<path d="M10440 10516 c0 -2 9 -6 20 -9 11 -3 18 -1 14 4 -5 9 -34 13 -34 5z"/>
<path d="M10770 10505 c-15 -18 -10 -45 12 -59 12 -7 21 -7 28 0 8 8 4 10 -12
10 -18 -1 -23 4 -23 24 0 19 5 25 22 24 12 0 20 3 17 8 -8 13 -30 9 -44 -7z"/>
<path d="M10871 10514 c10 -3 17 -16 17 -30 0 -14 4 -30 9 -35 7 -7 8 3 4 28
-5 28 -11 38 -26 40 -13 1 -15 0 -4 -3z"/>
<path d="M10932 10508 c-22 -22 -7 -69 23 -68 5 0 2 5 -7 11 -10 5 -18 19 -18
29 0 10 8 24 18 29 9 6 12 11 7 11 -6 0 -16 -5 -23 -12z"/>
<path d="M11020 10505 c-26 -31 13 -82 44 -56 19 16 21 42 4 59 -16 16 -33 15
-48 -3z m45 -25 c0 -29 -32 -41 -41 -16 -9 24 4 48 23 44 12 -2 18 -12 18 -28z"/>
<path d="M11142 10495 c0 -16 2 -22 5 -12 2 9 2 23 0 30 -3 6 -5 -1 -5 -18z"/>
<path d="M11242 10508 c-22 -22 -7 -69 23 -68 5 0 2 5 -7 11 -10 5 -18 19 -18
29 0 10 8 24 18 29 9 6 12 11 7 11 -6 0 -16 -5 -23 -12z"/>
<path d="M11340 10516 c0 -2 9 -6 20 -9 11 -3 18 -1 14 4 -5 9 -34 13 -34 5z"/>
<path d="M11488 10513 c6 -2 12 -12 12 -21 0 -15 2 -15 10 -2 9 15 -4 30 -25
29 -5 0 -4 -3 3 -6z"/>
<path d="M11537 10513 c6 -4 13 -24 16 -43 4 -34 4 -33 3 4 -1 26 -6 41 -16
43 -10 3 -11 2 -3 -4z"/>
<path d="M12131 10514 c10 -3 17 -16 17 -30 0 -14 4 -30 9 -35 7 -7 8 3 4 28
-5 28 -11 38 -26 40 -13 1 -15 0 -4 -3z"/>
<path d="M12284 10509 c-3 -6 2 -18 12 -27 17 -16 17 -16 5 0 -7 9 -10 22 -6
28 3 5 4 10 1 10 -3 0 -8 -5 -12 -11z"/>
<path d="M12814 10509 c-3 -6 2 -18 12 -27 17 -16 17 -16 5 0 -7 9 -10 22 -6
28 3 5 4 10 1 10 -3 0 -8 -5 -12 -11z"/>
<path d="M13594 10509 c-3 -6 2 -18 12 -27 17 -16 17 -16 5 0 -7 9 -10 22 -6
28 3 5 4 10 1 10 -3 0 -8 -5 -12 -11z"/>
<path d="M13894 10509 c-3 -6 2 -18 12 -27 17 -16 17 -16 5 0 -7 9 -10 22 -6
28 3 5 4 10 1 10 -3 0 -8 -5 -12 -11z"/>
<path d="M14151 10502 c-1 -13 4 -32 9 -43 11 -19 44 -26 54 -10 3 4 -5 6 -18
4 -28 -6 -43 22 -24 45 8 10 9 13 1 9 -6 -4 -14 -1 -16 5 -3 7 -6 3 -6 -10z"/>
<path d="M14440 10505 c-15 -18 -10 -45 12 -59 12 -7 21 -7 28 0 8 8 4 10 -12
10 -18 -1 -23 4 -23 24 0 19 5 25 22 24 12 0 20 3 17 8 -8 13 -30 9 -44 -7z"/>
<path d="M14890 10505 c-15 -18 -10 -45 12 -59 12 -7 21 -7 28 0 8 8 4 10 -12
10 -18 -1 -23 4 -23 24 0 19 5 25 22 24 12 0 20 3 17 8 -8 13 -30 9 -44 -7z"/>
<path d="M14972 10508 c-22 -22 -7 -69 23 -68 5 0 2 5 -7 11 -10 5 -18 19 -18
29 0 10 8 24 18 29 9 6 12 11 7 11 -6 0 -16 -5 -23 -12z"/>
<path d="M12546 10500 c7 -8 14 -24 17 -35 4 -19 5 -19 6 1 0 12 -7 28 -16 35
-16 12 -17 12 -7 -1z"/>
<path d="M12950 10499 c0 -5 5 -7 10 -4 6 3 10 8 10 11 0 2 -4 4 -10 4 -5 0
-10 -5 -10 -11z"/>
<path d="M13008 10483 c5 -21 7 -23 10 -9 2 10 0 22 -6 28 -6 6 -7 0 -4 -19z"/>
<path d="M13426 10500 c7 -8 14 -24 17 -35 4 -19 5 -19 6 1 0 12 -7 28 -16 35
-16 12 -17 12 -7 -1z"/>
<path d="M14072 10480 c0 -19 2 -27 5 -17 2 9 2 25 0 35 -3 9 -5 1 -5 -18z"/>
<path d="M14296 10500 c7 -8 14 -24 17 -35 4 -19 5 -19 6 1 0 12 -7 28 -16 35
-16 12 -17 12 -7 -1z"/>
<path d="M14510 10499 c0 -5 5 -7 10 -4 6 3 10 8 10 11 0 2 -4 4 -10 4 -5 0
-10 -5 -10 -11z"/>
<path d="M14568 10483 c5 -21 7 -23 10 -9 2 10 0 22 -6 28 -6 6 -7 0 -4 -19z"/>
<path d="M10171 10485 c-1 -25 17 -45 39 -44 10 0 9 3 -5 8 -11 4 -23 19 -26
32 -6 21 -7 21 -8 4z"/>
<path d="M10421 10485 c-1 -25 17 -45 39 -44 10 0 9 3 -5 8 -11 4 -23 19 -26
32 -6 21 -7 21 -8 4z"/>
<path d="M11321 10485 c-1 -25 17 -45 39 -44 10 0 9 3 -5 8 -11 4 -23 19 -26
32 -6 21 -7 21 -8 4z"/>
<path d="M11958 10483 c6 -2 18 -2 25 0 6 3 1 5 -13 5 -14 0 -19 -2 -12 -5z"/>
<path d="M12041 10483 c-1 -6 -4 -20 -7 -30 -5 -17 -5 -17 6 0 6 10 9 23 6 30
-3 9 -5 9 -5 0z"/>
<path d="M12598 10483 c6 -2 18 -2 25 0 6 3 1 5 -13 5 -14 0 -19 -2 -12 -5z"/>
<path d="M12891 10483 c-1 -6 -4 -20 -7 -30 -5 -17 -5 -17 6 0 6 10 9 23 6 30
-3 9 -5 9 -5 0z"/>
<path d="M13048 10483 c6 -2 18 -2 25 0 6 3 1 5 -13 5 -14 0 -19 -2 -12 -5z"/>
<path d="M13478 10483 c6 -2 18 -2 25 0 6 3 1 5 -13 5 -14 0 -19 -2 -12 -5z"/>
<path d="M13948 10483 c6 -2 18 -2 25 0 6 3 1 5 -13 5 -14 0 -19 -2 -12 -5z"/>
<path d="M10845 10470 c-9 -15 4 -30 23 -29 15 1 14 2 -1 6 -11 3 -16 11 -13
19 6 16 0 19 -9 4z"/>
<path d="M12105 10470 c-9 -15 4 -30 23 -29 15 1 14 2 -1 6 -11 3 -16 11 -13
19 6 16 0 19 -9 4z"/>
<path d="M12230 10474 c0 -26 51 -46 64 -25 4 5 -4 7 -15 4 -15 -4 -27 0 -35
12 -8 11 -14 14 -14 9z"/>
<path d="M12760 10474 c0 -26 51 -46 64 -25 4 5 -4 7 -15 4 -15 -4 -27 0 -35
12 -8 11 -14 14 -14 9z"/>
<path d="M13540 10474 c0 -26 51 -46 64 -25 4 5 -4 7 -15 4 -15 -4 -27 0 -35
12 -8 11 -14 14 -14 9z"/>
<path d="M13840 10474 c0 -26 51 -46 64 -25 4 5 -4 7 -15 4 -15 -4 -27 0 -35
12 -8 11 -14 14 -14 9z"/>
<path d="M9849 10458 c14 -19 46 -24 55 -9 4 5 -3 7 -14 4 -11 -3 -28 1 -38 8
-15 13 -16 12 -3 -3z"/>
<path d="M11749 10458 c14 -19 46 -24 55 -9 4 5 -3 7 -14 4 -11 -3 -28 1 -38
8 -15 13 -16 12 -3 -3z"/>
<path d="M12512 10454 c9 -9 21 -15 27 -13 6 2 -2 10 -17 17 -25 11 -25 11
-10 -4z"/>
<path d="M12714 10459 c-3 -6 -15 -9 -25 -6 -11 3 -17 1 -13 -4 8 -14 30 -11
44 6 7 8 10 15 7 15 -3 0 -9 -5 -13 -11z"/>
<path d="M12962 10454 c9 -9 21 -15 27 -13 6 2 -2 10 -17 17 -25 11 -25 11
-10 -4z"/>
<path d="M13392 10454 c9 -9 21 -15 27 -13 6 2 -2 10 -17 17 -25 11 -25 11
-10 -4z"/>
<path d="M13694 10459 c-3 -6 -15 -9 -25 -6 -11 3 -17 1 -13 -4 8 -14 30 -11
44 6 7 8 10 15 7 15 -3 0 -9 -5 -13 -11z"/>
<path d="M14262 10454 c9 -9 21 -15 27 -13 6 2 -2 10 -17 17 -25 11 -25 11
-10 -4z"/>
<path d="M14522 10454 c9 -9 21 -15 27 -13 6 2 -2 10 -17 17 -25 11 -25 11
-10 -4z"/>
<path d="M11157 10449 c7 -7 15 -10 18 -7 3 3 -2 9 -12 12 -14 6 -15 5 -6 -5z"/>
<path d="M11600 10441 c0 -11 -5 -22 -10 -24 -6 -3 -5 -4 1 -3 15 3 32 46 19
46 -6 0 -10 -9 -10 -19z"/>
<path d="M13785 10450 c-16 -7 -17 -9 -3 -9 9 -1 20 4 23 9 7 11 7 11 -20 0z"/>
<path d="M14645 10450 c-16 -7 -17 -9 -3 -9 9 -1 20 4 23 9 7 11 7 11 -20 0z"/>
<path d="M13010 10195 c0 -32 2 -56 4 -54 8 7 10 98 3 105 -4 4 -7 -19 -7 -51z"/>
<path d="M13081 10211 c-1 -39 -3 -42 -18 -30 -13 11 -13 8 3 -16 l19 -29 3
32 c2 18 1 45 -1 60 -3 18 -4 13 -6 -17z"/>
<path d="M13689 10233 c0 -10 -1 -33 -2 -51 -1 -19 1 -36 5 -39 5 -2 8 21 8
51 0 31 -2 56 -5 56 -3 0 -5 -8 -6 -17z"/>
<path d="M14008 10233 c-2 -10 -1 -36 3 -58 l6 -40 2 38 c0 22 6 37 14 37 9 0
8 3 -2 9 -7 5 -10 14 -7 20 4 6 3 11 -2 11 -5 0 -11 -8 -14 -17z"/>
<path d="M14670 10231 c-12 -24 -13 -51 0 -71 6 -10 8 -4 4 21 -4 26 -1 40 11
52 9 9 12 17 6 17 -6 0 -15 -9 -21 -19z"/>
<path d="M14717 10240 c6 -8 13 -28 16 -45 l4 -30 2 31 c0 20 -6 37 -16 45
-16 12 -16 12 -6 -1z"/>
<path d="M14770 10231 c-12 -24 -13 -51 0 -71 6 -10 8 -4 4 21 -4 26 -1 40 11
52 9 9 12 17 6 17 -6 0 -15 -9 -21 -19z"/>
<path d="M14817 10240 c6 -8 13 -28 16 -45 l4 -30 2 31 c0 20 -6 37 -16 45
-16 12 -16 12 -6 -1z"/>
<path d="M14870 10231 c-12 -24 -13 -51 0 -71 6 -10 8 -4 4 21 -4 26 -1 40 11
52 9 9 12 17 6 17 -6 0 -15 -9 -21 -19z"/>
<path d="M14917 10240 c6 -8 13 -28 16 -45 l4 -30 2 31 c0 20 -6 37 -16 45
-16 12 -16 12 -6 -1z"/>
<path d="M15008 10215 c4 -30 1 -35 -17 -35 -14 0 -20 4 -15 12 4 7 3 8 -4 4
-20 -12 -13 -26 13 -26 17 0 25 -6 26 -17 0 -14 2 -15 6 -3 3 8 11 18 17 22 8
5 7 8 -1 8 -8 0 -13 14 -13 35 0 19 -4 35 -8 35 -4 0 -6 -16 -4 -35z"/>
<path d="M13122 10195 c0 -16 2 -22 5 -12 2 9 2 23 0 30 -3 6 -5 -1 -5 -18z"/>
<path d="M13248 10213 c6 -2 12 -12 12 -21 0 -15 2 -15 10 -2 9 15 -4 30 -25
29 -5 0 -4 -3 3 -6z"/>
<path d="M13297 10213 c6 -4 13 -24 16 -43 4 -34 4 -33 3 4 -1 26 -6 41 -16
43 -10 3 -11 2 -3 -4z"/>
<path d="M13370 10216 c0 -2 9 -6 20 -9 11 -3 18 -1 14 4 -5 9 -34 13 -34 5z"/>
<path d="M13510 10205 c-26 -31 13 -82 44 -56 19 16 21 42 4 59 -16 16 -33 15
-48 -3z m45 -25 c0 -16 -6 -26 -18 -28 -19 -4 -32 20 -23 44 9 25 41 13 41
-16z"/>
<path d="M13642 10208 c-22 -22 -7 -69 23 -68 5 0 2 5 -7 11 -10 5 -18 19 -18
29 0 10 8 24 18 29 9 6 12 11 7 11 -6 0 -16 -5 -23 -12z"/>
<path d="M13740 10216 c0 -2 9 -6 20 -9 11 -3 18 -1 14 4 -5 9 -34 13 -34 5z"/>
<path d="M13930 10216 c0 -2 9 -6 20 -9 11 -3 18 -1 14 4 -5 9 -34 13 -34 5z"/>
<path d="M14070 10216 c0 -2 9 -6 20 -9 11 -3 18 -1 14 4 -5 9 -34 13 -34 5z"/>
<path d="M14220 10216 c0 -2 9 -6 20 -9 11 -3 18 -1 14 4 -5 9 -34 13 -34 5z"/>
<path d="M14320 10216 c0 -2 7 -7 16 -10 8 -3 12 -2 9 4 -6 10 -25 14 -25 6z"/>
<path d="M14390 10205 c-15 -18 -10 -45 12 -59 12 -7 21 -7 28 0 8 8 4 10 -12
10 -18 -1 -23 4 -23 24 0 19 5 25 22 24 12 0 20 3 17 8 -8 13 -30 9 -44 -7z"/>
<path d="M14531 10214 c10 -3 17 -16 17 -30 0 -14 4 -30 9 -35 7 -7 8 3 4 28
-5 28 -11 38 -26 40 -13 1 -15 0 -4 -3z"/>
<path d="M13351 10185 c-1 -25 17 -45 39 -44 10 0 9 3 -5 8 -11 4 -23 19 -26
32 -6 21 -7 21 -8 4z"/>
<path d="M13721 10185 c-1 -25 17 -45 39 -44 10 0 9 3 -5 8 -11 4 -23 19 -26
32 -6 21 -7 21 -8 4z"/>
<path d="M13911 10185 c-1 -25 17 -45 39 -44 10 0 9 3 -5 8 -11 4 -23 19 -26
32 -6 21 -7 21 -8 4z"/>
<path d="M14051 10185 c-1 -25 17 -45 39 -44 10 0 9 3 -5 8 -11 4 -23 19 -26
32 -6 21 -7 21 -8 4z"/>
<path d="M14201 10185 c-1 -25 17 -45 39 -44 10 0 9 3 -5 8 -11 4 -23 19 -26
32 -6 21 -7 21 -8 4z"/>
<path d="M14505 10170 c-9 -15 4 -30 23 -29 15 1 14 2 -1 6 -11 3 -16 11 -13
19 6 16 0 19 -9 4z"/>
<path d="M13137 10149 c7 -7 15 -10 18 -7 3 3 -2 9 -12 12 -14 6 -15 5 -6 -5z"/>
<path d="M14805 10150 c-16 -7 -17 -9 -3 -9 9 -1 20 4 23 9 7 11 7 11 -20 0z"/>
<path d="M14905 10150 c-16 -7 -17 -9 -3 -9 9 -1 20 4 23 9 7 11 7 11 -20 0z"/>
<path d="M5087 8843 c-12 -11 -8 -23 7 -23 8 0 16 7 20 15 5 15 -14 21 -27 8z"/>
<path d="M1000 8780 c-27 -27 -35 -65 -20 -101 14 -33 37 -49 72 -49 34 0 66
25 52 40 -8 8 -14 9 -18 1 -4 -6 -21 -11 -37 -11 -22 0 -32 6 -39 26 -22 57
20 110 64 81 32 -21 56 -5 25 17 -32 22 -75 20 -99 -4z"/>
<path d="M1180 8715 l0 -85 60 0 c47 0 60 3 60 15 0 11 -12 15 -45 15 -38 0
-45 3 -45 20 0 17 7 20 40 20 29 0 40 4 40 15 0 11 -11 15 -40 15 -33 0 -40 3
-40 20 0 17 7 20 40 20 29 0 40 4 40 15 0 12 -13 15 -55 15 l-55 0 0 -85z"/>
<path d="M1360 8716 c0 -68 3 -86 14 -86 9 0 16 12 18 32 4 44 24 46 49 4 13
-22 29 -36 41 -36 19 0 19 1 -2 31 -20 28 -21 31 -6 48 18 19 20 48 7 70 -5 8
-32 16 -65 19 l-56 4 0 -86z m95 29 c0 -15 -8 -21 -32 -23 -30 -3 -33 -1 -33
23 0 24 3 26 33 23 24 -2 32 -8 32 -23z"/>
<path d="M1540 8786 c0 -8 10 -16 23 -18 20 -3 22 -9 25 -70 2 -52 6 -68 17
-68 12 0 15 15 15 70 0 63 2 70 20 70 11 0 20 7 20 15 0 12 -13 15 -60 15 -45
0 -60 -3 -60 -14z"/>
<path d="M1720 8715 c0 -69 3 -85 15 -85 12 0 15 16 15 85 0 69 -3 85 -15 85
-12 0 -15 -16 -15 -85z"/>
<path d="M1810 8715 c0 -69 3 -85 15 -85 10 0 15 11 15 35 0 33 2 35 35 35 24
0 35 5 35 15 0 10 -11 15 -35 15 -28 0 -35 4 -35 20 0 17 7 20 40 20 29 0 40
4 40 15 0 12 -13 15 -55 15 l-55 0 0 -85z"/>
<path d="M1980 8715 c0 -69 3 -85 15 -85 12 0 15 16 15 85 0 69 -3 85 -15 85
-12 0 -15 -16 -15 -85z"/>
<path d="M2100 8780 c-27 -27 -35 -65 -20 -101 14 -33 37 -49 72 -49 34 0 66
25 52 40 -8 8 -14 9 -18 1 -4 -6 -21 -11 -37 -11 -22 0 -32 6 -39 26 -22 57
20 110 64 81 32 -21 56 -5 25 17 -32 22 -75 20 -99 -4z"/>
<path d="M2296 8723 c-14 -43 -26 -81 -26 -86 0 -16 28 -6 33 13 4 15 14 20
37 20 23 0 33 -5 37 -20 3 -11 13 -20 23 -20 17 0 17 6 -9 83 -22 64 -32 83
-48 85 -18 3 -25 -8 -47 -75z m58 15 c10 -38 7 -48 -14 -48 -11 0 -20 6 -20
13 0 23 12 57 20 57 4 0 10 -10 14 -22z"/>
<path d="M2470 8714 l0 -87 52 5 c63 6 88 32 88 88 0 51 -35 80 -96 80 l-44 0
0 -86z m94 40 c35 -34 9 -94 -40 -94 -22 0 -24 3 -24 55 0 52 2 55 24 55 14 0
32 -7 40 -16z"/>
<path d="M2700 8780 c-27 -27 -35 -65 -20 -101 34 -82 150 -54 150 36 0 70
-83 112 -130 65z m78 -16 c43 -30 22 -104 -29 -104 -23 0 -32 6 -39 26 -12 31
-3 71 19 84 21 13 23 12 49 -6z"/>
<path d="M2970 8714 l0 -87 52 5 c63 6 88 32 88 88 0 51 -35 80 -96 80 l-44 0
0 -86z m94 40 c35 -34 9 -94 -40 -94 -22 0 -24 3 -24 55 0 52 2 55 24 55 14 0
32 -7 40 -16z"/>
<path d="M3170 8715 l0 -85 60 0 c47 0 60 3 60 15 0 11 -12 15 -45 15 -38 0
-45 3 -45 20 0 17 7 20 40 20 29 0 40 4 40 15 0 11 -11 15 -40 15 -33 0 -40 3
-40 20 0 17 7 20 40 20 29 0 40 4 40 15 0 12 -13 15 -55 15 l-55 0 0 -85z"/>
<path d="M3430 8715 c0 -69 3 -85 15 -85 10 0 15 11 15 35 0 33 2 35 35 35 24
0 35 5 35 15 0 10 -11 15 -35 15 -28 0 -35 4 -35 20 0 17 7 20 40 20 29 0 40
4 40 15 0 12 -13 15 -55 15 l-55 0 0 -85z"/>
<path d="M3600 8715 c0 -69 3 -85 15 -85 12 0 15 16 15 85 0 69 -3 85 -15 85
-12 0 -15 -16 -15 -85z"/>
<path d="M3700 8715 c0 -68 3 -85 15 -85 10 0 15 15 17 58 l3 57 35 -57 c21
-36 42 -58 52 -58 16 0 18 10 18 85 0 68 -3 85 -15 85 -10 0 -15 -15 -17 -57
l-3 -58 -35 57 c-21 34 -42 58 -52 58 -16 0 -18 -11 -18 -85z"/>
<path d="M3926 8723 c-14 -43 -26 -81 -26 -86 0 -16 28 -6 33 13 4 15 14 20
37 20 23 0 33 -5 37 -20 3 -11 13 -20 23 -20 17 0 17 6 -9 83 -22 64 -32 83
-48 85 -18 3 -25 -8 -47 -75z m58 15 c10 -38 7 -48 -14 -48 -11 0 -20 6 -20
13 0 23 12 57 20 57 4 0 10 -10 14 -22z"/>
<path d="M4100 8715 l0 -85 50 0 c38 0 50 4 50 15 0 10 -11 15 -35 15 l-35 0
0 70 c0 56 -3 70 -15 70 -12 0 -15 -16 -15 -85z"/>
<path d="M4260 8715 c0 -69 3 -85 15 -85 12 0 15 16 15 85 0 69 -3 85 -15 85
-12 0 -15 -16 -15 -85z"/>
<path d="M4340 8786 c0 -10 13 -16 41 -18 l40 -3 -40 -54 c-56 -75 -54 -81 24
-81 51 0 65 3 65 15 0 11 -11 15 -40 15 -22 0 -40 3 -40 6 0 4 16 28 35 54 51
70 48 80 -25 80 -46 0 -60 -3 -60 -14z"/>
<path d="M4546 8723 c-14 -43 -26 -81 -26 -86 0 -16 28 -6 33 13 4 15 14 20
37 20 23 0 33 -5 37 -20 3 -11 13 -20 23 -20 17 0 17 6 -9 83 -22 64 -32 83
-48 85 -18 3 -25 -8 -47 -75z m58 15 c10 -38 7 -48 -14 -48 -11 0 -20 6 -20
13 0 23 12 57 20 57 4 0 10 -10 14 -22z"/>
<path d="M4740 8780 c-27 -27 -35 -65 -20 -101 14 -33 37 -49 72 -49 34 0 66
25 52 40 -8 8 -14 9 -18 1 -4 -6 -21 -11 -37 -11 -22 0 -32 6 -39 26 -22 57
20 110 64 81 32 -21 56 -5 25 17 -32 22 -75 20 -99 -4z"/>
<path d="M4920 8715 c0 -69 3 -85 15 -85 12 0 15 16 15 85 0 69 -3 85 -15 85
-12 0 -15 -16 -15 -85z"/>
<path d="M5040 8780 c-27 -27 -35 -65 -20 -101 34 -82 150 -54 150 36 0 70
-83 112 -130 65z m78 -16 c43 -30 22 -104 -29 -104 -23 0 -32 6 -39 26 -12 31
-3 71 19 84 21 13 23 12 49 -6z"/>
<path d="M5230 8715 c0 -68 3 -85 15 -85 10 0 15 15 17 58 l3 57 35 -57 c21
-36 42 -58 52 -58 16 0 18 10 18 85 0 68 -3 85 -15 85 -10 0 -15 -15 -17 -57
l-3 -58 -35 57 c-21 34 -42 58 -52 58 -16 0 -18 -11 -18 -85z"/>
<path d="M2364 8136 c-3 -7 -4 -35 -2 -62 l3 -49 75 0 75 0 3 63 3 62 -76 0
c-55 0 -77 -4 -81 -14z"/>
<path d="M4764 8136 c-3 -7 -4 -35 -2 -62 l3 -49 75 0 75 0 3 63 3 62 -76 0
c-55 0 -77 -4 -81 -14z"/>
<path d="M5380 8024 l0 -127 -22 20 c-57 52 -143 68 -211 39 -149 -62 -170
-342 -34 -450 35 -28 46 -31 112 -31 68 0 76 2 114 33 l41 33 0 -31 0 -30 80
0 80 0 -2 333 -3 332 -77 3 -78 3 0 -127z m-48 -175 c42 -23 62 -135 37 -207
-29 -85 -147 -82 -180 5 -12 33 -12 115 2 150 20 55 88 80 141 52z"/>
<path d="M6600 8024 l0 -127 -22 20 c-57 52 -143 68 -211 39 -149 -62 -170
-342 -34 -450 35 -28 46 -31 112 -31 68 0 76 2 114 33 l41 33 0 -31 0 -30 80
0 80 0 -2 333 -3 332 -77 3 -78 3 0 -127z m-48 -175 c42 -23 62 -135 37 -207
-29 -85 -147 -82 -180 5 -12 33 -12 115 2 150 20 55 88 80 141 52z"/>
<path d="M10455 8120 c-131 -32 -212 -122 -234 -259 -20 -121 21 -247 103
-317 82 -71 241 -93 370 -54 l66 21 0 64 c0 36 -2 65 -4 65 -2 0 -28 -11 -58
-25 -74 -35 -165 -35 -224 0 -119 70 -118 304 2 372 56 32 151 31 222 -2 30
-14 56 -25 58 -25 2 0 4 29 4 65 l0 64 -66 21 c-68 20 -179 26 -239 10z"/>
<path d="M1042 7883 c3 -201 6 -244 21 -278 40 -89 103 -126 227 -133 112 -6
182 13 232 64 61 60 68 97 68 356 l0 228 -80 0 -80 0 0 -215 c0 -232 -6 -267
-51 -299 -36 -25 -102 -21 -136 8 l-28 24 -3 241 -3 241 -85 0 -86 0 4 -237z"/>
<path d="M7208 7799 l-3 -321 -28 -24 c-18 -15 -41 -24 -63 -24 l-34 0 0 -66
0 -66 58 7 c128 15 179 44 216 125 20 42 21 65 24 368 l3 322 -85 0 -85 0 -3
-321z"/>
<path d="M1975 7954 c-16 -9 -40 -26 -52 -37 l-23 -20 0 31 0 32 -80 0 -80 0
0 -240 0 -240 80 0 80 0 0 149 c0 137 2 150 23 182 31 46 78 59 115 32 l27
-20 3 -172 2 -171 81 0 81 0 -4 183 c-3 200 -13 239 -71 281 -37 27 -140 33
-182 10z"/>
<path d="M3348 7956 c-105 -37 -158 -117 -158 -234 0 -80 19 -131 66 -179 72
-71 208 -93 354 -55 l65 17 3 59 c2 45 0 57 -10 53 -75 -31 -155 -49 -205 -45
-48 4 -61 10 -85 37 -15 17 -28 40 -28 51 0 19 7 20 175 20 l175 0 0 58 c0 33
-8 73 -19 97 -23 51 -89 111 -138 124 -52 15 -150 13 -195 -3z m159 -101 c22
-15 46 -69 36 -79 -4 -3 -48 -6 -100 -6 -87 0 -93 1 -93 21 0 11 13 34 29 50
34 33 91 40 128 14z"/>
<path d="M4048 7950 c-20 -11 -44 -30 -52 -42 -16 -22 -16 -22 -16 15 l0 37
-80 0 -80 0 0 -240 0 -240 80 0 80 0 0 138 c0 114 3 143 19 172 24 47 83 69
141 54 l40 -11 0 68 0 69 -47 0 c-27 -1 -64 -9 -85 -20z"/>
<path d="M4312 7957 c-18 -5 -46 -25 -62 -44 -26 -29 -30 -41 -30 -94 0 -56 3
-64 33 -94 32 -32 60 -41 185 -60 41 -7 72 -26 72 -46 0 -5 -9 -18 -20 -29
-31 -31 -152 -24 -252 15 -16 6 -18 0 -18 -49 l0 -55 43 -13 c23 -7 93 -13
157 -13 131 0 178 15 211 69 23 38 25 106 3 151 -20 43 -63 63 -173 82 -47 8
-92 19 -98 25 -20 16 -15 36 12 54 31 20 133 15 203 -10 l42 -15 0 58 0 59
-63 11 c-78 13 -200 13 -245 -2z"/>
<path d="M5775 7965 c-5 -2 -27 -6 -47 -10 l-38 -6 0 -58 0 -58 58 20 c106 35
232 12 232 -43 0 -15 -15 -18 -99 -23 -162 -8 -231 -55 -231 -155 0 -94 53
-152 147 -160 65 -5 134 18 163 55 l20 26 0 -37 0 -36 75 0 75 0 0 175 c0 188
-6 221 -51 262 -41 37 -103 53 -203 52 -50 0 -95 -2 -101 -4z m205 -296 c0
-46 -56 -99 -104 -99 -37 0 -76 27 -76 54 0 49 45 75 128 76 52 0 52 0 52 -31z"/>
<path d="M7615 7965 c-5 -2 -27 -6 -47 -10 l-38 -6 0 -58 0 -58 58 20 c106 35
232 12 232 -43 0 -15 -15 -18 -99 -23 -162 -8 -231 -55 -231 -155 0 -94 53
-152 147 -160 65 -5 134 18 163 55 l20 26 0 -37 0 -36 75 0 75 0 0 175 c0 188
-6 221 -51 262 -41 37 -103 53 -203 52 -50 0 -95 -2 -101 -4z m205 -296 c0
-46 -56 -99 -104 -99 -37 0 -76 27 -76 54 0 49 45 75 128 76 52 0 52 0 52 -31z"/>
<path d="M8765 7965 c-5 -2 -27 -6 -47 -10 l-38 -6 0 -58 0 -58 58 20 c106 35
232 12 232 -43 0 -15 -15 -18 -99 -23 -162 -8 -231 -55 -231 -155 0 -94 53
-152 147 -160 65 -5 134 18 163 55 l20 26 0 -37 0 -36 75 0 75 0 0 175 c0 188
-6 221 -51 262 -41 37 -103 53 -203 52 -50 0 -95 -2 -101 -4z m205 -296 c0
-46 -56 -99 -104 -99 -37 0 -76 27 -76 54 0 49 45 75 128 76 52 0 52 0 52 -31z"/>
<path d="M11008 7956 c-105 -37 -158 -117 -158 -234 0 -80 19 -131 66 -179 72
-71 208 -93 354 -55 l65 17 3 59 c2 45 0 57 -10 53 -75 -31 -155 -49 -205 -45
-48 4 -61 10 -85 37 -15 17 -28 40 -28 51 0 19 7 20 175 20 l175 0 0 58 c0 33
-8 73 -19 97 -23 51 -89 111 -138 124 -52 15 -150 13 -195 -3z m159 -101 c22
-15 46 -69 36 -79 -4 -3 -48 -6 -100 -6 -87 0 -93 1 -93 21 0 11 13 34 29 50
34 33 91 40 128 14z"/>
<path d="M11708 7950 c-20 -11 -44 -30 -52 -42 -16 -22 -16 -22 -16 15 l0 37
-80 0 -80 0 0 -240 0 -240 80 0 80 0 0 138 c0 114 3 143 19 172 24 47 83 69
141 54 l40 -11 0 68 0 69 -47 0 c-27 -1 -64 -9 -85 -20z"/>
<path d="M12028 7956 c-105 -37 -158 -117 -158 -234 0 -154 84 -240 241 -250
126 -7 205 29 253 119 26 46 30 64 29 129 0 124 -48 198 -152 235 -53 18 -163
19 -213 1z m171 -124 c52 -52 50 -183 -4 -229 -28 -25 -82 -30 -117 -12 -62
33 -64 222 -1 258 36 21 92 13 122 -17z"/>
<path d="M12895 7965 c-5 -2 -27 -6 -47 -10 l-38 -6 0 -58 0 -58 58 20 c106
35 232 12 232 -43 0 -15 -15 -18 -99 -23 -162 -8 -231 -55 -231 -155 0 -94 53
-152 147 -160 65 -5 134 18 163 55 l20 26 0 -37 0 -36 75 0 75 0 0 175 c0 188
-6 221 -51 262 -41 37 -103 53 -203 52 -50 0 -95 -2 -101 -4z m205 -296 c0
-46 -56 -99 -104 -99 -37 0 -76 27 -76 54 0 49 45 75 128 76 52 0 52 0 52 -31z"/>
<path d="M2360 7720 l0 -240 80 0 80 0 0 240 0 240 -80 0 -80 0 0 -240z"/>
<path d="M2610 7953 c0 -4 41 -112 92 -241 l91 -233 85 3 85 3 78 200 c44 110
86 217 94 238 l15 37 -78 0 -77 0 -55 -156 c-30 -86 -58 -158 -61 -160 -4 -2
-33 68 -64 156 l-58 160 -73 0 c-41 0 -74 -3 -74 -7z"/>
<path d="M4760 7720 l0 -240 80 0 80 0 0 240 0 240 -80 0 -80 0 0 -240z"/>
<path d="M8060 7953 c0 -4 41 -112 92 -241 l91 -233 85 3 85 3 78 200 c44 110
86 217 94 238 l15 37 -78 0 -77 0 -55 -156 c-30 -86 -58 -158 -61 -160 -4 -2
-33 68 -64 156 l-58 160 -73 0 c-41 0 -74 -3 -74 -7z"/>
<path d="M9550 7735 l0 -65 135 0 136 0 -3 63 -3 62 -132 3 -133 3 0 -66z"/>
<path d="M8647 7043 c-4 -3 -7 -154 -7 -335 l0 -328 80 0 80 0 0 335 0 335
-73 0 c-41 0 -77 -3 -80 -7z"/>
<path d="M8944 7036 c-3 -7 -4 -35 -2 -62 l3 -49 75 0 75 0 3 63 3 62 -76 0
c-55 0 -77 -4 -81 -14z"/>
<path d="M10660 6925 l0 -126 -40 32 c-46 37 -123 50 -183 30 -156 -52 -184
-344 -44 -455 35 -28 46 -31 112 -31 68 0 76 2 114 33 l41 33 0 -31 0 -30 80
0 80 0 -2 333 -3 332 -77 3 -78 3 0 -126z m-48 -176 c42 -23 62 -135 37 -207
-29 -85 -147 -82 -180 5 -12 33 -12 115 2 150 20 55 88 80 141 52z"/>
<path d="M11936 6958 c-25 -51 -52 -122 -61 -158 -18 -77 -19 -199 -4 -272 14
-64 68 -195 98 -237 21 -29 27 -31 82 -31 32 0 59 2 59 4 0 2 -15 36 -34 77
-53 115 -70 189 -70 314 0 122 19 207 73 328 l30 67 -63 0 -64 0 -46 -92z"/>
<path d="M14268 7013 l-68 -16 0 -68 c0 -38 2 -69 5 -69 3 0 29 12 58 27 75
39 165 39 203 1 31 -31 36 -92 11 -132 -9 -13 -74 -75 -146 -137 l-130 -114 0
-62 -1 -63 235 0 235 0 0 60 0 59 -141 3 -142 3 108 95 c122 108 165 169 165
239 0 67 -33 126 -88 158 -40 24 -59 28 -142 30 -60 1 -120 -4 -162 -14z"/>
<path d="M1040 6700 l0 -320 230 0 230 0 0 60 0 60 -145 0 -145 0 0 75 0 75
130 0 130 0 0 65 0 65 -130 0 -130 0 0 60 0 60 140 0 140 0 0 60 0 60 -225 0
-225 0 0 -320z"/>
<path d="M6000 7017 c0 -2 -52 -142 -115 -312 -63 -171 -115 -314 -115 -318 0
-4 37 -7 82 -5 l81 3 20 58 19 57 128 0 129 0 22 -60 22 -60 78 0 c44 0 79 4
79 9 0 6 -194 536 -225 614 -6 15 -21 17 -106 17 -54 0 -99 -1 -99 -3z m147
-277 l41 -120 -84 0 c-46 0 -84 3 -84 7 0 15 75 233 80 233 3 0 24 -54 47
-120z"/>
<path d="M13095 7009 c-92 -21 -85 -14 -85 -74 0 -30 3 -55 8 -55 6 0 56 11
120 25 l22 5 0 -210 0 -210 -75 0 -75 0 0 -55 0 -55 225 0 225 0 0 55 0 55
-70 0 -70 0 0 265 0 265 -92 -1 c-51 -1 -111 -5 -133 -10z"/>
<path d="M13610 6845 c0 -96 3 -175 8 -175 4 0 37 7 74 16 147 36 241 -26 205
-135 -26 -74 -135 -91 -252 -37 l-56 25 3 -67 3 -67 65 -18 c95 -26 230 -20
296 14 65 33 103 89 111 160 16 158 -91 258 -264 247 l-58 -3 -3 48 -3 47 140
0 141 0 0 60 0 60 -205 0 -205 0 0 -175z"/>
<path d="M3860 6930 l0 -70 -40 0 -40 0 0 -55 0 -55 40 0 40 0 0 -130 c0 -210
18 -233 192 -239 l108 -3 0 56 0 56 -59 0 c-87 0 -91 7 -91 146 l0 114 80 0
80 0 0 55 0 55 -80 0 -80 0 0 70 0 70 -75 0 -75 0 0 -70z"/>
<path d="M7040 6930 l0 -70 -40 0 -40 0 0 -55 0 -55 40 0 40 0 0 -130 c0 -210
18 -233 192 -239 l108 -3 0 56 0 56 -59 0 c-87 0 -91 7 -91 146 l0 114 80 0
80 0 0 55 0 55 -80 0 -80 0 0 70 0 70 -75 0 -75 0 0 -70z"/>
<path d="M12500 6820 l0 -109 -112 -3 -113 -3 -3 -47 -3 -47 113 -3 113 -3 3
-112 3 -113 49 0 50 0 0 115 0 115 110 0 110 0 0 50 0 50 -110 0 -110 0 0 110
0 110 -50 0 -50 0 0 -110z"/>
<path d="M2425 6854 c-16 -8 -40 -25 -52 -36 l-23 -21 0 31 0 32 -80 0 -80 0
0 -330 0 -330 80 0 80 0 0 120 0 121 41 -33 c38 -31 46 -33 114 -33 66 0 77 3
112 31 136 108 115 388 -34 450 -43 19 -121 17 -158 -2z m77 -105 c63 -34 65
-213 3 -253 -52 -34 -124 -11 -144 46 -25 71 -5 183 36 207 24 14 79 14 105 0z"/>
<path d="M2948 6856 c-105 -37 -158 -117 -158 -234 0 -80 19 -131 66 -179 72
-71 208 -93 354 -55 l65 17 3 59 c2 45 0 57 -10 53 -75 -31 -155 -49 -205 -45
-48 4 -61 10 -85 37 -15 17 -28 40 -28 51 0 19 7 20 175 20 l175 0 0 58 c0 33
-8 73 -19 97 -23 51 -89 111 -138 124 -52 15 -150 13 -195 -3z m159 -101 c22
-15 46 -69 36 -79 -4 -3 -48 -6 -100 -6 -87 0 -93 1 -93 21 0 11 13 34 29 50
34 33 91 40 128 14z"/>
<path d="M3638 6850 c-20 -11 -44 -30 -52 -42 -16 -22 -16 -22 -16 15 l0 37
-80 0 -80 0 0 -240 0 -240 80 0 80 0 0 138 c0 114 3 143 19 172 24 47 83 69
141 54 l40 -11 0 68 0 69 -47 0 c-27 -1 -64 -9 -85 -20z"/>
<path d="M4378 6856 c-105 -37 -158 -117 -158 -234 0 -154 84 -240 241 -250
126 -7 205 29 253 119 26 46 30 64 29 129 0 124 -48 198 -152 235 -53 18 -163
19 -213 1z m171 -124 c52 -52 50 -183 -4 -229 -28 -25 -82 -30 -117 -12 -62
33 -64 222 -1 258 36 21 92 13 122 -17z"/>
<path d="M6632 6855 c-102 -32 -162 -118 -162 -235 0 -119 60 -204 166 -236
57 -17 149 -18 210 -3 l44 11 0 59 c0 33 -2 59 -4 59 -2 0 -20 -7 -39 -15 -48
-20 -122 -19 -158 2 -36 22 -59 69 -59 123 0 54 23 101 59 123 36 21 110 22
158 2 19 -8 37 -15 39 -15 2 0 4 26 4 59 l0 59 -44 11 c-59 15 -161 13 -214
-4z"/>
<path d="M8155 6865 c-5 -2 -27 -6 -47 -10 l-38 -6 0 -58 0 -58 58 20 c106 35
232 12 232 -43 0 -15 -15 -18 -99 -23 -162 -8 -231 -55 -231 -155 0 -94 53
-152 147 -160 65 -5 134 18 163 55 l20 26 0 -37 0 -36 75 0 75 0 0 175 c0 188
-6 221 -51 262 -41 37 -103 53 -203 52 -50 0 -95 -2 -101 -4z m205 -296 c0
-46 -56 -99 -104 -99 -37 0 -76 27 -76 54 0 49 45 75 128 76 52 0 52 0 52 -31z"/>
<path d="M9835 6865 c-5 -2 -27 -6 -47 -10 l-38 -6 0 -58 0 -58 58 20 c106 35
232 12 232 -43 0 -15 -15 -18 -99 -23 -162 -8 -231 -55 -231 -155 0 -94 53
-152 147 -160 65 -5 134 18 163 55 l20 26 0 -37 0 -36 75 0 75 0 0 175 c0 188
-6 221 -51 262 -41 37 -103 53 -203 52 -50 0 -95 -2 -101 -4z m205 -296 c0
-46 -56 -99 -104 -99 -37 0 -76 27 -76 54 0 49 45 75 128 76 52 0 52 0 52 -31z"/>
<path d="M11078 6856 c-105 -37 -158 -117 -158 -234 0 -154 84 -240 241 -250
126 -7 205 29 253 119 26 46 30 64 29 129 0 124 -48 198 -152 235 -53 18 -163
19 -213 1z m171 -124 c52 -52 50 -183 -4 -229 -28 -25 -82 -30 -117 -12 -62
33 -64 222 -1 258 36 21 92 13 122 -17z"/>
<path d="M1590 6855 c0 -3 34 -51 76 -107 42 -57 79 -108 81 -115 3 -8 -34
-65 -81 -128 -47 -63 -86 -117 -86 -120 0 -3 35 -5 78 -5 l78 0 53 76 c29 42
57 72 61 67 4 -4 28 -38 54 -75 l48 -68 79 0 c90 0 88 -5 24 80 -23 30 -60 80
-83 111 l-41 57 84 113 c47 62 85 114 85 116 0 2 -36 3 -80 3 l-80 0 -46 -70
c-26 -38 -48 -70 -50 -70 -2 0 -25 32 -50 70 l-47 70 -78 0 c-44 0 -79 -2 -79
-5z"/>
<path d="M7430 6682 c0 -164 2 -181 23 -222 12 -25 38 -55 57 -68 30 -20 45
-23 97 -20 51 3 70 10 107 37 l46 32 0 -30 0 -31 75 0 75 0 0 240 0 240 -74 0
-74 0 -4 -152 c-3 -172 -12 -198 -73 -218 -43 -14 -80 3 -95 43 -5 16 -10 97
-10 178 l0 149 -75 0 -75 0 0 -178z"/>
<path d="M8940 6620 l0 -240 80 0 80 0 0 240 0 240 -80 0 -80 0 0 -240z"/>
<path d="M9220 6805 l0 -55 121 0 121 0 -126 -131 -126 -132 0 -53 0 -54 215
0 215 0 0 55 0 55 -126 0 -126 0 126 133 125 132 1 53 0 52 -210 0 -210 0 0
-55z"/>
<path d="M5130 6635 l0 -65 135 0 136 0 -3 63 -3 62 -132 3 -133 3 0 -66z"/>
<path d="M1037 5943 c-4 -3 -7 -154 -7 -335 l0 -328 80 0 80 0 0 149 c0 137 2
150 23 182 31 46 78 59 115 32 l27 -20 3 -172 2 -171 81 0 81 0 -4 183 c-3
158 -6 187 -23 221 -29 57 -64 79 -133 84 -62 4 -105 -10 -149 -51 l-23 -20 0
126 0 127 -73 0 c-41 0 -77 -3 -80 -7z"/>
<path d="M2635 5878 c46 -101 65 -177 71 -288 7 -114 -9 -199 -60 -329 -20
-48 -36 -91 -36 -95 0 -3 27 -6 60 -6 l59 0 46 93 c107 219 106 397 -6 620
l-39 77 -64 0 -65 0 34 -72z"/>
<path d="M1888 5750 c-20 -11 -44 -30 -52 -42 -16 -22 -16 -22 -16 15 l0 37
-80 0 -80 0 0 -240 0 -240 80 0 80 0 0 138 c0 114 3 143 19 172 24 47 83 69
141 54 l40 -11 0 68 0 69 -47 0 c-27 -1 -64 -9 -85 -20z"/>
<path d="M2152 5757 c-18 -5 -46 -25 -62 -44 -26 -29 -30 -41 -30 -94 0 -56 3
-64 33 -94 32 -32 60 -41 185 -60 41 -7 72 -26 72 -46 0 -5 -9 -18 -20 -29
-31 -31 -152 -24 -252 15 -16 6 -18 0 -18 -49 l0 -55 43 -13 c23 -7 93 -13
157 -13 131 0 178 15 211 69 23 38 25 106 3 151 -20 43 -63 63 -173 82 -47 8
-92 19 -98 25 -20 16 -15 36 12 54 31 20 133 15 203 -10 l42 -15 0 58 0 59
-63 11 c-78 13 -200 13 -245 -2z"/>
<path d="M2460 4733 c-66 -24 -78 -117 -21 -160 17 -13 88 -17 115 -7 11 4 16
19 16 50 0 44 0 44 -35 44 -24 0 -35 -5 -35 -15 0 -8 7 -15 15 -15 8 0 15 -9
15 -20 0 -28 -55 -28 -70 -1 -30 58 11 113 70 93 26 -10 30 -9 30 7 0 26 -58
39 -100 24z"/>
<path d="M2610 4650 c0 -83 1 -90 20 -90 19 0 20 7 20 90 0 83 -1 90 -20 90
-19 0 -20 -7 -20 -90z"/>
<path d="M2850 4651 l0 -89 53 0 c62 0 87 18 87 63 0 43 -30 70 -70 62 -28 -6
-30 -5 -30 23 0 23 -4 30 -20 30 -18 0 -20 -7 -20 -89z m95 -10 c8 -26 -4 -51
-26 -51 -20 0 -36 40 -24 59 10 18 43 12 50 -8z"/>
<path d="M3180 4650 c0 -83 1 -90 20 -90 19 0 20 7 20 90 0 83 -1 90 -20 90
-19 0 -20 -7 -20 -90z"/>
<path d="M4300 4725 c0 -8 9 -15 20 -15 11 0 20 7 20 15 0 8 -9 15 -20 15 -11
0 -20 -7 -20 -15z"/>
<path d="M5590 4651 l0 -89 53 0 c62 0 87 18 87 63 0 43 -30 70 -70 62 -28 -6
-30 -5 -30 23 0 23 -4 30 -20 30 -18 0 -20 -7 -20 -89z m95 -10 c8 -26 -4 -51
-26 -51 -20 0 -36 40 -24 59 10 18 43 12 50 -8z"/>
<path d="M5920 4650 c0 -83 1 -90 20 -90 19 0 20 7 20 90 0 83 -1 90 -20 90
-19 0 -20 -7 -20 -90z"/>
<path d="M6090 4712 c0 -26 -3 -28 -34 -24 -26 3 -37 -1 -50 -19 -20 -29 -20
-58 -1 -86 12 -18 25 -21 70 -21 l55 1 0 88 c0 82 -2 89 -20 89 -15 0 -20 -7
-20 -28z m-5 -87 c0 -23 -5 -31 -21 -33 -24 -3 -38 20 -28 50 4 13 13 18 27
16 17 -2 22 -10 22 -33z"/>
<path d="M980 4645 c0 -50 4 -85 10 -85 6 0 10 35 10 85 0 50 -4 85 -10 85 -6
0 -10 -35 -10 -85z"/>
<path d="M1298 4724 c-5 -4 -8 -16 -8 -26 0 -10 -7 -18 -17 -18 -17 -1 -17 -1
-1 -13 10 -8 18 -31 20 -58 3 -39 6 -44 28 -47 22 -2 23 -1 8 8 -12 7 -18 23
-18 47 0 22 7 41 18 49 16 12 16 13 0 14 -10 0 -18 10 -20 26 -2 14 -6 22 -10
18z"/>
<path d="M1728 4724 c-5 -4 -8 -16 -8 -26 0 -10 -7 -18 -17 -18 -17 -1 -17 -1
-1 -13 10 -8 18 -31 20 -58 3 -39 6 -44 28 -47 22 -2 23 -1 8 8 -12 7 -18 23
-18 47 0 22 7 41 18 49 16 12 16 13 0 14 -10 0 -18 10 -20 26 -2 14 -6 22 -10
18z"/>
<path d="M3340 4645 c0 -78 2 -85 20 -85 16 0 19 8 22 63 l3 62 22 -47 c12
-27 27 -48 33 -48 6 0 20 19 30 43 l20 42 0 -57 c0 -55 1 -58 25 -58 25 0 25
1 25 85 l0 85 -31 0 c-26 0 -33 -6 -47 -40 -9 -22 -20 -40 -23 -40 -3 0 -13
18 -22 40 -13 35 -20 40 -46 40 l-31 0 0 -85z"/>
<path d="M3913 4710 c-3 -11 -9 -20 -14 -20 -5 0 -9 -7 -9 -15 0 -8 5 -15 10
-15 6 0 10 -11 10 -24 0 -14 4 -36 10 -50 8 -21 16 -26 45 -26 24 0 35 5 35
15 0 8 -9 15 -20 15 -16 0 -20 7 -20 35 0 28 4 35 20 35 11 0 20 7 20 15 0 8
-8 15 -19 15 -10 0 -21 9 -24 20 -3 11 -13 20 -22 20 -9 0 -19 -9 -22 -20z"/>
<path d="M4800 4645 c0 -84 0 -85 25 -85 25 0 25 1 25 85 0 84 0 85 -25 85
-25 0 -25 -1 -25 -85z"/>
<path d="M5402 4659 c4 -82 18 -99 78 -99 55 0 70 23 70 103 0 60 -2 67 -20
67 -18 0 -20 -7 -20 -57 0 -66 -9 -86 -36 -81 -16 3 -19 14 -22 71 -3 65 -4
67 -29 67 -25 0 -25 0 -21 -71z"/>
<path d="M6448 4713 c-3 -10 -17 -48 -31 -85 l-26 -68 24 0 c16 0 25 6 25 15
0 11 11 15 39 15 25 0 41 -5 45 -15 5 -15 46 -22 45 -7 0 4 -12 41 -28 82 -25
69 -30 75 -58 78 -22 2 -32 -2 -35 -15z m51 -75 c1 -12 -6 -18 -19 -18 -24 0
-23 -2 -8 40 10 30 12 32 19 14 4 -10 8 -27 8 -36z"/>
<path d="M7043 4710 c-3 -11 -9 -20 -14 -20 -5 0 -9 -7 -9 -15 0 -8 5 -15 10
-15 6 0 10 -11 10 -24 0 -14 4 -36 10 -50 8 -21 16 -26 45 -26 24 0 35 5 35
15 0 8 -9 15 -20 15 -16 0 -20 7 -20 35 0 28 4 35 20 35 11 0 20 7 20 15 0 8
-8 15 -19 15 -10 0 -21 9 -24 20 -3 11 -13 20 -22 20 -9 0 -19 -9 -22 -20z"/>
<path d="M2696 4668 c-36 -51 -7 -108 53 -108 46 0 71 24 71 68 0 41 -23 62
-70 62 -29 0 -43 -6 -54 -22z m79 -43 c0 -23 -5 -31 -21 -33 -24 -3 -38 20
-28 50 4 13 13 18 27 16 17 -2 22 -10 22 -33z"/>
<path d="M3020 4675 c0 -10 10 -14 36 -12 50 3 57 -21 8 -25 -44 -4 -65 -28
-48 -55 8 -13 26 -19 68 -20 l56 -2 0 53 c0 28 -5 57 -12 64 -18 18 -108 16
-108 -3z m80 -64 c0 -5 -6 -13 -13 -19 -15 -13 -42 1 -33 17 8 13 46 15 46 2z"/>
<path d="M3586 4668 c-38 -54 -3 -111 66 -106 24 2 43 9 46 17 3 10 -2 12 -24
8 -31 -6 -54 0 -54 14 0 5 20 9 45 9 41 0 45 2 45 23 0 55 -93 80 -124 35z
m74 -13 c11 -13 8 -15 -20 -15 -28 0 -31 2 -20 15 7 8 16 15 20 15 4 0 13 -7
20 -15z"/>
<path d="M3740 4624 c0 -57 2 -64 20 -64 16 0 20 7 20 34 0 47 9 66 31 66 16
0 19 -8 19 -50 0 -43 3 -50 20 -50 18 0 20 7 20 54 0 31 -5 58 -12 64 -7 5
-37 10 -65 10 l-53 0 0 -64z"/>
<path d="M4026 4668 c-36 -51 -7 -108 53 -108 46 0 71 24 71 68 0 41 -23 62
-70 62 -29 0 -43 -6 -54 -22z m79 -43 c0 -23 -5 -31 -21 -33 -24 -3 -38 20
-28 50 4 13 13 18 27 16 17 -2 22 -10 22 -33z"/>
<path d="M4180 4624 c0 -57 2 -64 20 -64 16 0 20 7 20 38 0 41 14 62 42 62 10
0 18 6 18 14 0 10 -14 14 -50 14 l-50 0 0 -64z"/>
<path d="M4300 4625 c0 -58 2 -65 20 -65 18 0 20 7 20 65 0 58 -2 65 -20 65
-18 0 -20 -7 -20 -65z"/>
<path d="M4380 4624 c0 -57 2 -64 20 -64 16 0 20 7 20 34 0 47 9 66 31 66 16
0 19 -8 19 -50 0 -43 3 -50 20 -50 18 0 20 7 20 54 0 31 -5 58 -12 64 -7 5
-37 10 -65 10 l-53 0 0 -64z"/>
<path d="M4555 4667 c-21 -30 -19 -63 5 -87 23 -23 50 -26 69 -7 10 10 12 8 9
-8 -2 -15 -12 -21 -41 -23 -24 -2 -37 -8 -37 -18 0 -19 69 -19 98 2 19 13 22
24 22 89 l0 73 -55 1 c-45 0 -57 -4 -70 -22z m80 -42 c0 -36 -28 -46 -44 -16
-15 27 -3 53 23 49 16 -2 21 -10 21 -33z"/>
<path d="M4890 4624 c0 -57 2 -64 20 -64 16 0 20 7 20 34 0 47 9 66 31 66 16
0 19 -8 19 -50 0 -43 3 -50 20 -50 18 0 20 7 20 54 0 31 -5 58 -12 64 -7 5
-37 10 -65 10 l-53 0 0 -64z"/>
<path d="M5065 4667 c-21 -30 -19 -63 5 -87 23 -23 50 -26 69 -7 10 10 12 8 9
-8 -2 -15 -12 -21 -41 -23 -24 -2 -37 -8 -37 -18 0 -19 69 -19 98 2 19 13 22
24 22 89 l0 73 -55 1 c-45 0 -57 -4 -70 -22z m80 -42 c0 -36 -28 -46 -44 -16
-15 27 -3 53 23 49 16 -2 21 -10 21 -33z"/>
<path d="M5760 4675 c0 -10 10 -14 36 -12 50 3 57 -21 8 -25 -44 -4 -65 -28
-48 -55 8 -13 26 -19 68 -20 l56 -2 0 53 c0 28 -5 57 -12 64 -18 18 -108 16
-108 -3z m80 -64 c0 -5 -6 -13 -13 -19 -15 -13 -42 1 -33 17 8 13 46 15 46 2z"/>
<path d="M6176 4668 c-36 -51 -7 -108 53 -108 46 0 71 24 71 68 0 41 -23 62
-70 62 -29 0 -43 -6 -54 -22z m79 -43 c0 -23 -5 -31 -21 -33 -24 -3 -38 20
-28 50 4 13 13 18 27 16 17 -2 22 -10 22 -33z"/>
<path d="M6606 4668 c-37 -52 -3 -112 61 -106 46 4 58 28 14 28 -20 0 -34 7
-41 19 -16 31 -2 51 37 51 50 0 37 24 -14 28 -33 2 -44 -1 -57 -20z"/>
<path d="M6746 4668 c-36 -51 -7 -108 53 -108 46 0 71 24 71 68 0 41 -23 62
-70 62 -29 0 -43 -6 -54 -22z m79 -43 c0 -23 -5 -31 -21 -33 -24 -3 -38 20
-28 50 4 13 13 18 27 16 17 -2 22 -10 22 -33z"/>
<path d="M6900 4675 c-20 -24 -3 -54 36 -61 46 -9 38 -30 -11 -26 -27 2 -36 0
-33 -10 7 -21 98 -17 112 5 15 24 -3 51 -40 57 -37 7 -32 26 7 22 20 -1 29 2
29 13 0 20 -83 21 -100 0z"/>
<path d="M7150 4675 c0 -10 10 -14 36 -12 50 3 57 -21 8 -25 -44 -4 -65 -28
-48 -55 8 -13 26 -19 68 -20 l56 -2 0 53 c0 28 -5 57 -12 64 -18 18 -108 16
-108 -3z m80 -64 c0 -5 -6 -13 -13 -19 -15 -13 -42 1 -33 17 8 13 46 15 46 2z"/>
<path d="M1040 4618 c0 -32 4 -58 10 -58 6 0 10 20 10 45 0 33 5 47 18 54 27
15 42 -5 42 -56 0 -24 5 -43 10 -43 13 0 13 76 0 101 -8 14 -20 18 -50 17
l-40 -1 0 -59z"/>
<path d="M1171 4666 c-17 -20 -2 -46 30 -53 36 -7 43 -17 25 -33 -11 -9 -20
-9 -36 0 -25 13 -42 4 -20 -10 23 -15 66 -12 80 5 18 22 5 45 -30 51 -17 4
-33 11 -36 16 -10 15 18 28 37 17 18 -9 34 2 22 15 -12 11 -60 6 -72 -8z"/>
<path d="M1370 4618 c0 -32 4 -58 10 -58 6 0 10 21 10 46 0 37 4 47 20 51 30
8 24 22 -10 21 -30 -1 -30 -1 -30 -60z"/>
<path d="M1462 4623 l3 -58 43 -1 42 -2 0 59 c0 33 -4 59 -10 59 -5 0 -10 -22
-10 -49 0 -48 -10 -63 -37 -54 -8 3 -13 23 -13 54 0 28 -5 49 -10 49 -7 0 -10
-22 -8 -57z"/>
<path d="M1596 4658 c-21 -30 -20 -61 2 -81 21 -19 49 -22 72 -7 21 13 5 23
-18 11 -16 -9 -24 -7 -36 5 -34 33 -4 94 36 73 23 -12 39 -2 18 11 -26 16 -58
11 -74 -12z"/>
<path d="M1796 4658 c-33 -46 -7 -98 47 -98 29 0 47 24 47 64 0 53 -65 76 -94
34z m74 -38 c0 -38 -31 -57 -54 -34 -33 33 -4 94 35 74 12 -7 19 -21 19 -40z"/>
<path d="M1920 4618 c0 -32 4 -58 10 -58 6 0 10 21 10 46 0 37 4 47 20 51 30
8 24 22 -10 21 -30 -1 -30 -1 -30 -60z"/>
<path d="M2006 4658 c-21 -30 -20 -61 2 -81 23 -21 65 -22 82 -2 10 12 6 13
-25 8 -26 -4 -40 -2 -46 8 -15 25 -10 29 36 29 49 0 59 15 29 44 -22 23 -60
20 -78 -6z m62 0 c20 -20 14 -28 -23 -28 -38 0 -46 13 -17 29 22 13 26 13 40
-1z"/>
<path d="M2131 4666 c-17 -20 -2 -46 30 -53 36 -7 43 -17 25 -33 -11 -9 -20
-9 -36 0 -25 13 -42 4 -20 -10 23 -15 66 -12 80 5 18 22 5 45 -30 51 -17 4
-33 11 -36 16 -10 15 18 28 37 17 18 -9 34 2 22 15 -12 11 -60 6 -72 -8z"/>
<path d="M5240 4580 c0 -13 7 -20 20 -20 13 0 20 7 20 20 0 13 -7 20 -20 20
-13 0 -20 -7 -20 -20z"/>
<path d="M2577 2184 c-4 -4 -7 -115 -7 -246 l0 -238 60 0 c54 0 60 2 60 20 0
20 1 20 31 -2 41 -31 116 -32 156 -2 49 37 68 81 68 159 0 78 -19 122 -68 159
-40 29 -115 29 -156 -2 l-30 -22 -3 87 -3 88 -50 3 c-28 2 -54 0 -58 -4z m228
-229 c21 -20 25 -34 25 -80 0 -46 -4 -60 -25 -80 -13 -14 -33 -25 -45 -25 -11
0 -32 11 -45 25 -21 20 -25 34 -25 80 0 46 4 60 25 80 13 14 34 25 45 25 12 0
32 -11 45 -25z"/>
<path d="M4827 2183 c-4 -3 -7 -44 -7 -90 l0 -84 -32 23 c-43 30 -115 31 -155
2 -98 -71 -94 -254 7 -322 43 -29 106 -26 151 7 29 21 29 21 29 1 0 -18 6 -20
55 -20 l55 0 0 245 0 245 -48 0 c-27 0 -52 -3 -55 -7z m-32 -228 c21 -20 25
-34 25 -80 0 -46 -4 -60 -25 -80 -30 -31 -56 -32 -91 -2 -23 21 -27 31 -27 82
0 51 4 61 27 82 35 30 61 29 91 -2z"/>
<path d="M6497 2183 c-4 -3 -7 -44 -7 -90 l0 -84 -32 23 c-43 30 -115 31 -155
2 -98 -71 -94 -254 7 -322 43 -29 106 -26 151 7 29 21 29 21 29 1 0 -18 6 -20
55 -20 l55 0 0 245 0 245 -48 0 c-27 0 -52 -3 -55 -7z m-32 -228 c21 -20 25
-34 25 -80 0 -46 -4 -60 -25 -80 -30 -31 -56 -32 -91 -2 -23 21 -27 31 -27 82
0 51 4 61 27 82 35 30 61 29 91 -2z"/>
<path d="M8837 2183 c-4 -3 -7 -44 -7 -90 l0 -84 -32 23 c-43 30 -115 31 -155
2 -98 -71 -94 -254 7 -322 43 -29 106 -26 151 7 29 21 29 21 29 1 0 -18 6 -20
55 -20 l55 0 0 245 0 245 -48 0 c-27 0 -52 -3 -55 -7z m-32 -228 c21 -20 25
-34 25 -80 0 -46 -4 -60 -25 -80 -30 -31 -56 -32 -91 -2 -23 21 -27 31 -27 82
0 51 4 61 27 82 35 30 61 29 91 -2z"/>
<path d="M1020 1935 l0 -235 165 0 165 0 0 45 0 45 -105 0 -105 0 0 55 0 55
95 0 95 0 0 45 0 45 -95 0 -95 0 0 45 0 45 100 0 100 0 0 45 0 45 -160 0 -160
0 0 -235z"/>
<path d="M4150 1935 l0 -235 165 0 165 0 0 45 0 45 -105 0 -105 0 0 55 0 55
95 0 95 0 0 45 0 45 -95 0 -95 0 0 45 0 45 100 0 100 0 0 45 0 45 -160 0 -160
0 0 -235z"/>
<path d="M7484 2151 c-170 -77 -176 -345 -9 -430 58 -30 161 -35 233 -12 42
14 42 15 42 62 l0 48 -42 -19 c-49 -22 -121 -26 -158 -7 -45 23 -70 73 -70
141 0 74 25 121 75 142 53 22 86 18 178 -21 16 -7 18 -3 15 40 -3 45 -5 49
-38 61 -55 20 -178 17 -226 -5z"/>
<path d="M10980 1936 l0 -236 60 0 60 0 0 79 0 78 78 6 c91 6 135 25 162 70
26 42 26 121 1 163 -32 52 -79 67 -228 72 l-133 5 0 -237z m240 124 c11 -11
20 -31 20 -45 0 -41 -33 -65 -90 -65 l-50 0 0 65 0 65 50 0 c37 0 55 -5 70
-20z"/>
<path d="M1840 2100 c0 -47 -2 -50 -25 -50 -22 0 -25 -4 -25 -40 0 -35 3 -40
24 -40 23 0 23 -3 28 -99 7 -147 29 -171 154 -171 l64 0 0 39 0 40 -47 3 -48
3 -3 93 -3 92 56 0 55 0 0 40 0 40 -55 0 -55 0 0 50 0 50 -60 0 -60 0 0 -50z"/>
<path d="M1519 2051 c-52 -17 -68 -32 -79 -71 -8 -30 -7 -47 4 -73 18 -44 25
-48 116 -67 69 -14 75 -17 75 -40 0 -24 -2 -25 -70 -25 -38 0 -82 4 -97 9 -27
8 -28 7 -28 -32 0 -39 2 -41 38 -49 59 -13 174 -9 210 6 56 24 78 92 47 150
-16 32 -50 47 -126 57 -27 4 -56 12 -66 19 -15 11 -15 15 -3 30 12 14 26 16
80 12 36 -3 75 -8 88 -12 20 -7 22 -4 22 33 0 33 -4 41 -22 46 -41 11 -162 16
-189 7z"/>
<path d="M2237 2046 c-76 -28 -117 -88 -117 -171 0 -150 134 -218 323 -165 35
10 37 13 37 50 0 44 -3 46 -51 26 -32 -13 -76 -19 -127 -17 -23 1 -72 42 -72
61 0 6 46 10 130 10 l130 0 0 45 c0 59 -30 117 -75 145 -44 27 -127 35 -178
16z m127 -88 c29 -41 21 -48 -53 -48 -39 0 -72 4 -75 9 -3 5 4 20 15 35 27 35
90 37 113 4z"/>
<path d="M3110 2053 c-69 -11 -70 -11 -70 -54 0 -35 2 -40 18 -33 9 4 49 9 88
12 57 3 74 1 87 -13 35 -34 22 -45 -53 -45 -118 0 -170 -36 -170 -116 0 -51
27 -88 76 -104 49 -17 101 -6 136 26 l28 28 0 -27 c0 -26 2 -27 56 -27 l56 0
-4 140 -3 140 -31 31 c-42 42 -119 57 -214 42z m140 -212 c0 -10 -9 -30 -21
-45 -34 -43 -109 -32 -109 15 0 27 40 49 87 49 35 0 43 -3 43 -19z"/>
<path d="M3650 2053 c-8 -3 -27 -15 -42 -25 -28 -19 -28 -19 -28 1 0 19 -6 21
-60 21 l-60 0 0 -175 0 -175 60 0 60 0 0 115 c0 102 2 117 20 135 22 22 69 27
88 8 8 -8 12 -53 12 -135 l0 -123 61 0 62 0 -5 133 c-3 99 -9 140 -22 165 -25
48 -95 74 -146 55z"/>
<path d="M5580 2053 c-69 -11 -70 -11 -70 -54 0 -35 2 -40 18 -33 9 4 49 9 88
12 57 3 74 1 87 -13 35 -34 22 -45 -53 -45 -118 0 -170 -36 -170 -116 0 -51
27 -88 76 -104 49 -17 101 -6 136 26 l28 28 0 -27 c0 -26 2 -27 56 -27 l56 0
-4 140 -3 140 -31 31 c-42 42 -119 57 -214 42z m140 -212 c0 -10 -9 -30 -21
-45 -34 -43 -109 -32 -109 15 0 27 40 49 87 49 35 0 43 -3 43 -19z"/>
<path d="M6110 2049 c-13 -6 -33 -17 -42 -26 -17 -15 -18 -15 -18 5 0 20 -5
22 -60 22 l-60 0 0 -175 0 -175 60 0 60 0 0 106 c0 58 4 113 10 123 13 26 65
45 100 37 l30 -5 0 49 c0 48 -1 50 -27 49 -16 0 -39 -5 -53 -10z"/>
<path d="M6818 2050 c-83 -25 -128 -87 -128 -177 0 -112 70 -178 190 -178 46
0 76 6 105 21 99 52 116 217 30 297 -43 40 -132 57 -197 37z m109 -94 c24 -21
27 -31 27 -79 0 -45 -4 -61 -24 -82 -14 -14 -35 -25 -50 -25 -15 0 -36 11 -50
25 -20 21 -24 37 -24 82 0 48 3 58 27 79 16 13 37 24 47 24 10 0 31 -11 47
-24z"/>
<path d="M7920 2053 c-69 -11 -70 -11 -70 -54 0 -35 2 -40 18 -33 9 4 49 9 88
12 57 3 74 1 87 -13 35 -34 22 -45 -53 -45 -118 0 -170 -36 -170 -116 0 -51
27 -88 76 -104 49 -17 101 -6 136 26 l28 28 0 -27 c0 -26 2 -27 56 -27 l56 0
-4 140 -3 140 -31 31 c-42 42 -119 57 -214 42z m140 -212 c0 -10 -9 -30 -21
-45 -34 -43 -109 -32 -109 15 0 27 40 49 87 49 35 0 43 -3 43 -19z"/>
<path d="M8450 2049 c-13 -6 -33 -17 -42 -26 -17 -15 -18 -15 -18 5 0 20 -5
22 -60 22 l-60 0 0 -175 0 -175 60 0 60 0 0 106 c0 58 4 113 10 123 13 26 65
45 100 37 l30 -5 0 49 c0 48 -1 50 -27 49 -16 0 -39 -5 -53 -10z"/>
<path d="M9147 2046 c-76 -28 -117 -88 -117 -171 0 -150 134 -218 323 -165 35
10 37 13 37 50 0 44 -3 46 -51 26 -32 -13 -76 -19 -127 -17 -23 1 -72 42 -72
61 0 6 46 10 130 10 l130 0 0 45 c0 59 -30 117 -75 145 -44 27 -127 35 -178
16z m127 -88 c29 -41 21 -48 -53 -48 -39 0 -72 4 -75 9 -3 5 4 20 15 35 27 35
90 37 113 4z"/>
<path d="M9670 2053 c-8 -3 -27 -15 -42 -25 -28 -19 -28 -19 -28 1 0 19 -6 21
-60 21 l-60 0 0 -175 0 -175 60 0 60 0 0 115 c0 102 2 117 20 135 22 22 69 27
88 8 8 -8 12 -53 12 -135 l0 -123 61 0 62 0 -5 133 c-4 98 -10 141 -22 166
-25 47 -95 73 -146 54z"/>
<path d="M10020 2053 c-69 -11 -70 -11 -70 -54 0 -35 2 -40 18 -33 9 4 49 9
88 12 57 3 74 1 87 -13 35 -34 22 -45 -53 -45 -118 0 -170 -36 -170 -116 0
-51 27 -88 76 -104 49 -17 101 -6 136 26 l28 28 0 -27 c0 -26 2 -27 56 -27
l56 0 -4 140 -3 140 -31 31 c-42 42 -119 57 -214 42z m140 -212 c0 -10 -9 -30
-21 -45 -34 -43 -109 -32 -109 15 0 27 40 49 87 49 35 0 43 -3 43 -19z"/>
<path d="M10439 2051 c-52 -17 -68 -32 -79 -71 -8 -30 -7 -47 4 -73 18 -44 25
-48 116 -67 69 -14 75 -17 75 -40 0 -24 -2 -25 -70 -25 -38 0 -82 4 -97 9 -27
8 -28 7 -28 -32 0 -39 2 -41 38 -49 59 -13 174 -9 210 6 56 24 78 92 47 150
-16 32 -50 47 -126 57 -27 4 -56 12 -66 19 -15 11 -15 15 -3 30 12 14 26 16
80 12 36 -3 75 -8 88 -12 20 -7 22 -4 22 33 0 33 -4 41 -22 46 -41 11 -162 16
-189 7z"/>
<path d="M11537 2046 c-76 -28 -117 -88 -117 -171 0 -150 134 -218 323 -165
35 10 37 13 37 50 0 44 -3 46 -51 26 -32 -13 -76 -19 -127 -17 -23 1 -72 42
-72 61 0 6 46 10 130 10 l130 0 0 45 c0 59 -30 117 -75 145 -44 27 -127 35
-178 16z m127 -88 c29 -41 21 -48 -53 -48 -39 0 -72 4 -75 9 -3 5 4 20 15 35
27 35 90 37 113 4z"/>
<path d="M12050 2049 c-13 -6 -33 -17 -42 -26 -17 -15 -18 -15 -18 5 0 20 -5
22 -60 22 l-60 0 0 -175 0 -175 60 0 60 0 0 106 c0 58 4 113 10 123 13 26 65
45 100 37 l30 -5 0 49 c0 48 -1 50 -27 49 -16 0 -39 -5 -53 -10z"/>
<path d="M12287 2046 c-76 -28 -117 -88 -117 -171 0 -150 134 -218 323 -165
35 10 37 13 37 50 0 44 -3 46 -51 26 -32 -13 -76 -19 -127 -17 -23 1 -72 42
-72 61 0 6 46 10 130 10 l130 0 0 45 c0 59 -30 117 -75 145 -44 27 -127 35
-178 16z m127 -88 c29 -41 21 -48 -53 -48 -39 0 -72 4 -75 9 -3 5 4 20 15 35
27 35 90 37 113 4z"/>
<path d="M5040 1925 c0 -133 10 -174 48 -208 44 -39 127 -30 176 18 15 15 16
14 16 -9 0 -25 3 -26 55 -26 l55 0 0 175 0 175 -55 0 -55 0 0 -109 c0 -94 -3
-112 -21 -135 -15 -19 -30 -26 -55 -26 -46 0 -54 23 -54 161 l0 109 -55 0 -55
0 0 -125z"/>
<path d="M12610 2010 l0 -40 86 0 86 0 -91 -95 c-83 -88 -91 -99 -91 -135 l0
-40 155 0 155 0 0 40 0 40 -92 0 -92 0 92 94 c86 87 92 96 92 135 l0 41 -150
0 -150 0 0 -40z"/>
<path d="M980 1275 c0 -50 4 -85 10 -85 6 0 10 18 10 40 l0 40 40 0 c22 0 40
5 40 10 0 6 -18 10 -40 10 -36 0 -40 3 -40 25 0 23 4 25 45 25 25 0 45 5 45
10 0 6 -25 10 -55 10 l-55 0 0 -85z"/>
<path d="M1370 1275 c0 -50 4 -85 10 -85 6 0 10 20 10 45 0 33 5 47 18 54 27
15 42 -5 42 -56 0 -24 5 -43 10 -43 15 0 12 83 -3 105 -10 12 -22 16 -40 13
-24 -5 -27 -2 -27 23 0 16 -4 29 -10 29 -6 0 -10 -35 -10 -85z"/>
<path d="M1797 1342 c-37 -40 -8 -97 45 -90 22 4 28 1 26 -11 -4 -18 -48 -29
-48 -12 0 6 -7 11 -15 11 -18 0 -20 -21 -3 -38 19 -19 63 -14 83 8 22 25 26
110 6 134 -18 22 -74 20 -94 -2z m68 -37 c0 -13 -8 -21 -22 -23 -19 -3 -23 1
-23 23 0 22 4 26 23 23 14 -2 22 -10 22 -23z"/>
<path d="M2070 1332 c0 -26 -3 -28 -28 -24 -36 5 -62 -19 -62 -58 0 -42 23
-59 80 -58 l50 0 0 84 c0 77 -2 84 -20 84 -15 0 -20 -7 -20 -28z m-2 -75 c5
-23 -15 -47 -34 -40 -8 3 -14 18 -14 35 0 25 4 29 22 26 13 -2 24 -11 26 -21z"/>
<path d="M2773 1353 c-7 -3 -13 -13 -13 -24 0 -10 -7 -19 -15 -19 -19 0 -19
-16 -1 -27 8 -4 16 -26 18 -48 3 -35 6 -40 31 -43 28 -3 38 15 12 24 -9 4 -15
19 -15 35 0 19 5 29 15 29 8 0 15 7 15 15 0 8 -6 15 -14 15 -8 0 -16 11 -18
23 -2 14 -8 22 -15 20z"/>
<path d="M2850 1345 c0 -8 7 -15 15 -15 8 0 15 7 15 15 0 8 -7 15 -15 15 -8 0
-15 -7 -15 -15z"/>
<path d="M3280 1276 l0 -83 45 -1 c52 -1 75 16 75 58 0 39 -26 63 -62 58 -25
-4 -28 -2 -28 24 0 18 -5 28 -15 28 -12 0 -15 -16 -15 -84z m84 -11 c8 -23 -4
-45 -25 -45 -22 0 -34 22 -25 45 3 8 14 15 25 15 10 0 21 -7 25 -15z"/>
<path d="M3790 1332 c0 -26 -3 -28 -28 -24 -36 5 -62 -19 -62 -58 0 -42 23
-59 80 -58 l50 0 0 84 c0 77 -2 84 -20 84 -15 0 -20 -7 -20 -28z m-2 -75 c5
-23 -15 -47 -34 -40 -8 3 -14 18 -14 35 0 25 4 29 22 26 13 -2 24 -11 26 -21z"/>
<path d="M4055 1344 c-20 -20 -16 -48 8 -52 12 -2 17 3 17 17 0 14 6 21 20 21
36 0 25 -44 -20 -83 -55 -47 -52 -57 20 -57 47 0 60 3 60 15 0 10 -10 15 -31
15 l-31 0 31 31 c33 32 41 75 19 97 -17 17 -74 15 -93 -4z"/>
<path d="M4201 1347 c-28 -34 -26 -111 5 -141 19 -20 68 -21 84 -1 21 25 24
89 6 123 -14 26 -23 32 -50 32 -18 0 -39 -6 -45 -13z m67 -62 c3 -47 -9 -70
-32 -62 -11 5 -16 19 -16 50 0 48 6 59 30 55 10 -2 16 -16 18 -43z"/>
<path d="M4345 1344 c-20 -20 -16 -48 8 -52 12 -2 17 3 17 17 0 14 6 21 20 21
36 0 25 -44 -20 -83 -55 -47 -52 -57 20 -57 47 0 60 3 60 15 0 10 -10 15 -31
15 l-31 0 31 31 c33 32 41 75 19 97 -17 17 -74 15 -93 -4z"/>
<path d="M4506 1311 c-47 -63 -47 -81 -1 -81 28 0 35 -4 35 -20 0 -13 7 -20
20 -20 13 0 20 7 20 20 0 11 5 20 10 20 6 0 10 7 10 15 0 8 -4 15 -10 15 -5 0
-10 23 -10 50 0 43 -3 50 -19 50 -12 0 -34 -20 -55 -49z m34 -26 c0 -16 -6
-25 -15 -25 -18 0 -19 4 -3 30 16 26 18 25 18 -5z"/>
<path d="M1126 1288 c-21 -30 -20 -61 2 -81 23 -21 65 -22 82 -2 10 12 6 13
-25 8 -26 -4 -40 -2 -46 8 -15 25 -10 29 36 29 49 0 59 15 29 44 -22 23 -60
20 -78 -6z m62 0 c20 -20 14 -28 -23 -28 -38 0 -46 13 -17 29 22 13 26 13 40
-1z"/>
<path d="M1256 1288 c-21 -30 -20 -61 2 -81 21 -19 49 -22 72 -7 21 13 5 23
-18 11 -16 -9 -24 -7 -36 5 -34 33 -4 94 36 73 23 -12 39 -2 18 11 -26 16 -58
11 -74 -12z"/>
<path d="M1507 1303 c-4 -3 -7 -13 -7 -21 0 -13 3 -12 19 2 10 9 25 14 35 10
25 -10 15 -25 -24 -38 -28 -9 -35 -16 -35 -36 0 -23 4 -25 50 -27 l50 -1 -4
46 c-2 26 -8 53 -13 60 -11 13 -60 17 -71 5z m63 -67 c0 -20 -25 -37 -44 -30
-21 8 -20 20 2 33 24 15 42 13 42 -3z"/>
<path d="M2147 1292 c-49 -53 21 -132 82 -93 21 14 5 28 -27 23 -16 -2 -33 1
-36 7 -5 7 8 11 38 11 50 0 57 10 30 48 -19 27 -64 29 -87 4z m61 -20 c2 -7
-6 -12 -17 -12 -21 0 -27 11 -14 24 9 9 26 2 31 -12z"/>
<path d="M2330 1295 c-14 -17 -7 -43 15 -50 8 -3 22 -7 31 -10 8 -3 12 -9 9
-15 -4 -7 -13 -6 -27 1 -15 8 -23 8 -31 0 -16 -16 8 -31 49 -31 61 0 71 52 14
71 -39 14 -39 30 0 23 18 -4 30 -2 30 4 0 24 -71 30 -90 7z"/>
<path d="M2467 1292 c-49 -53 21 -132 82 -93 21 14 5 28 -27 23 -16 -2 -33 1
-36 7 -5 7 8 11 38 11 50 0 57 10 30 48 -19 27 -64 29 -87 4z m61 -20 c2 -7
-6 -12 -17 -12 -21 0 -27 11 -14 24 9 9 26 2 31 -12z"/>
<path d="M2600 1224 c0 -68 3 -84 15 -84 10 0 15 10 15 28 0 26 3 28 28 24 36
-5 62 19 62 58 0 42 -23 59 -75 58 l-45 -1 0 -83z m84 41 c8 -23 -4 -45 -25
-45 -11 0 -22 7 -25 15 -9 23 3 45 25 45 10 0 21 -7 25 -15z"/>
<path d="M2850 1250 c0 -47 3 -60 15 -60 12 0 15 13 15 60 0 47 -3 60 -15 60
-12 0 -15 -13 -15 -60z"/>
<path d="M2927 1292 c-49 -53 21 -132 82 -93 21 14 5 28 -27 23 -16 -2 -33 1
-36 7 -5 7 8 11 38 11 50 0 57 10 30 48 -19 27 -64 29 -87 4z m61 -20 c2 -7
-6 -12 -17 -12 -21 0 -27 11 -14 24 9 9 26 2 31 -12z"/>
<path d="M3060 1249 c0 -45 3 -59 14 -59 10 0 16 14 18 42 2 31 8 44 21 46 14
3 17 -4 17 -42 0 -39 3 -46 20 -46 17 0 20 7 20 46 0 38 3 45 18 42 12 -2 18
-15 20 -46 2 -29 8 -42 18 -42 12 0 14 12 12 58 -3 51 -5 57 -26 60 -13 2 -29
-2 -37 -8 -9 -7 -15 -8 -19 -1 -4 6 -27 10 -51 9 l-45 -1 0 -58z"/>
<path d="M3430 1249 c0 -46 3 -59 15 -59 10 0 15 10 15 29 0 39 9 61 26 61 8
0 14 6 14 14 0 9 -12 14 -35 14 l-35 0 0 -59z"/>
<path d="M3527 1292 c-49 -53 21 -132 82 -93 21 14 5 28 -27 23 -16 -2 -33 1
-36 7 -5 7 8 11 38 11 50 0 57 10 30 48 -19 27 -64 29 -87 4z m61 -20 c2 -7
-6 -12 -17 -12 -21 0 -27 11 -14 24 9 9 26 2 31 -12z"/>
<path d="M3867 1292 c-49 -53 21 -132 82 -93 21 14 5 28 -27 23 -16 -2 -33 1
-36 7 -5 7 8 11 38 11 50 0 57 10 30 48 -19 27 -64 29 -87 4z m61 -20 c2 -7
-6 -12 -17 -12 -21 0 -27 11 -14 24 9 9 26 2 31 -12z"/>
<path d="M980 905 l0 -85 44 0 c63 0 91 25 91 83 0 63 -24 87 -87 87 l-48 0 0
-85z m100 50 c6 -8 12 -30 12 -50 0 -46 -17 -65 -58 -65 l-34 0 0 65 0 65 34
0 c18 0 39 -7 46 -15z"/>
<path d="M1610 980 c0 -5 5 -10 10 -10 6 0 10 5 10 10 0 6 -4 10 -10 10 -5 0
-10 -4 -10 -10z"/>
<path d="M1715 979 c-4 -6 -5 -13 -2 -16 7 -7 27 6 27 18 0 12 -17 12 -25 -2z"/>
<path d="M2123 977 c-4 -8 -16 -16 -25 -20 -24 -9 -23 -27 2 -27 18 0 20 -7
20 -55 0 -48 2 -55 20 -55 18 0 20 7 20 85 0 68 -3 85 -15 85 -7 0 -18 -6 -22
-13z"/>
<path d="M2198 948 c-6 -52 5 -67 33 -50 25 16 39 8 39 -24 0 -26 -27 -33 -48
-12 -8 8 -15 9 -23 1 -16 -16 17 -43 51 -43 37 0 60 24 60 60 0 33 -39 66 -65
56 -9 -3 -15 0 -15 9 0 10 11 15 35 15 24 0 35 5 35 15 0 11 -12 15 -49 15
l-49 0 -4 -42z"/>
<path d="M2345 974 c-20 -20 -16 -48 8 -52 12 -2 17 3 17 17 0 14 6 21 20 21
36 0 25 -44 -20 -83 -55 -47 -52 -57 20 -57 47 0 60 3 60 15 0 10 -10 15 -31
15 l-31 0 31 31 c33 32 41 75 19 97 -17 17 -74 15 -93 -4z"/>
<path d="M2530 905 c0 -67 3 -85 14 -85 10 0 16 14 18 42 2 31 8 44 21 46 14
3 17 -4 17 -42 0 -39 3 -46 20 -46 17 0 20 7 20 49 0 55 -16 76 -55 69 -22 -5
-25 -2 -25 23 0 19 -5 29 -15 29 -12 0 -15 -16 -15 -85z"/>
<path d="M3563 983 c-7 -3 -13 -13 -13 -24 0 -10 -7 -19 -15 -19 -19 0 -19
-16 -1 -27 8 -4 16 -26 18 -48 3 -35 6 -40 31 -43 28 -3 38 15 12 24 -9 4 -15
19 -15 35 0 19 5 29 15 29 8 0 15 7 15 15 0 8 -6 15 -14 15 -8 0 -16 11 -18
23 -2 14 -8 22 -15 20z"/>
<path d="M3803 983 c-7 -3 -13 -13 -13 -24 0 -10 -7 -19 -15 -19 -19 0 -19
-16 -1 -27 8 -4 16 -26 18 -48 3 -35 6 -40 31 -43 28 -3 38 15 12 24 -9 4 -15
19 -15 35 0 19 5 29 15 29 8 0 15 7 15 15 0 8 -6 15 -14 15 -8 0 -16 11 -18
23 -2 14 -8 22 -15 20z"/>
<path d="M4010 905 c0 -69 3 -85 15 -85 12 0 15 16 15 85 0 69 -3 85 -15 85
-12 0 -15 -16 -15 -85z"/>
<path d="M1152 883 l3 -58 43 -1 42 -2 0 59 c0 33 -4 59 -10 59 -5 0 -10 -22
-10 -49 0 -48 -10 -63 -37 -54 -8 3 -13 23 -13 54 0 28 -5 49 -10 49 -7 0 -10
-22 -8 -57z"/>
<path d="M1280 878 c0 -32 4 -58 10 -58 6 0 10 21 10 46 0 37 4 47 20 51 30 8
24 22 -10 21 -30 -1 -30 -1 -30 -60z"/>
<path d="M1367 933 c-4 -3 -7 -13 -7 -21 0 -13 3 -12 19 2 10 9 25 14 35 10
25 -10 15 -25 -24 -38 -28 -9 -35 -16 -35 -36 0 -23 4 -25 50 -27 l50 -1 -4
46 c-2 26 -8 53 -13 60 -11 13 -60 17 -71 5z m63 -67 c0 -20 -25 -37 -44 -30
-21 8 -20 20 2 33 24 15 42 13 42 -3z"/>
<path d="M1496 918 c-21 -30 -20 -61 2 -81 21 -19 49 -22 72 -7 21 13 5 23
-18 11 -16 -9 -24 -7 -36 5 -34 33 -4 94 36 73 23 -12 39 -2 18 11 -26 16 -58
11 -74 -12z"/>
<path d="M1610 880 c0 -33 4 -60 10 -60 6 0 10 27 10 60 0 33 -4 60 -10 60 -6
0 -10 -27 -10 -60z"/>
<path d="M1676 918 c-33 -46 -7 -98 47 -98 29 0 47 24 47 64 0 53 -65 76 -94
34z m74 -38 c0 -38 -31 -57 -54 -34 -33 33 -4 94 35 74 12 -7 19 -21 19 -40z"/>
<path d="M1800 878 c0 -32 4 -58 10 -58 6 0 10 20 10 45 0 33 5 47 18 54 27
15 42 -5 42 -56 0 -24 5 -43 10 -43 13 0 13 76 0 101 -8 14 -20 18 -50 17
l-40 -1 0 -59z"/>
<path d="M2677 922 c-50 -55 16 -128 84 -92 24 13 26 72 3 94 -21 22 -67 20
-87 -2z m71 -46 c-2 -13 -12 -22 -25 -24 -20 -3 -23 1 -23 26 0 17 6 32 13 35
19 7 38 -14 35 -37z"/>
<path d="M2810 879 c0 -46 3 -59 15 -59 10 0 15 10 15 29 0 39 9 61 26 61 8 0
14 6 14 14 0 9 -12 14 -35 14 l-35 0 0 -59z"/>
<path d="M2900 920 c-9 -17 -8 -20 10 -20 11 0 20 5 20 10 0 6 7 10 16 10 23
0 11 -24 -16 -30 -28 -7 -45 -32 -37 -53 5 -13 19 -16 57 -16 l50 2 0 46 c0
26 -5 52 -12 59 -20 20 -76 15 -88 -8z m60 -65 c0 -8 -6 -15 -14 -15 -17 0
-28 14 -19 24 12 12 33 6 33 -9z"/>
<path d="M3030 925 c-14 -17 -7 -43 15 -50 8 -3 22 -7 31 -10 8 -3 12 -9 9
-15 -4 -7 -13 -6 -27 1 -15 8 -23 8 -31 0 -16 -16 8 -31 49 -31 61 0 71 52 14
71 -39 14 -39 30 0 23 18 -4 30 -2 30 4 0 24 -71 30 -90 7z"/>
<path d="M3217 922 c-49 -53 21 -132 82 -93 21 14 5 28 -27 23 -16 -2 -33 1
-36 7 -5 7 8 11 38 11 50 0 57 10 30 48 -19 27 -64 29 -87 4z m61 -20 c2 -7
-6 -12 -17 -12 -21 0 -27 11 -14 24 9 9 26 2 31 -12z"/>
<path d="M3350 879 c0 -45 3 -59 14 -59 10 0 16 14 18 42 2 31 8 44 21 46 14
3 17 -4 17 -42 0 -39 3 -46 20 -46 17 0 20 7 20 49 0 58 -12 70 -68 69 l-42 0
0 -59z"/>
<path d="M3647 922 c-50 -55 16 -128 84 -92 24 13 26 72 3 94 -21 22 -67 20
-87 -2z m71 -46 c-2 -13 -12 -22 -25 -24 -20 -3 -23 1 -23 26 0 17 6 32 13 35
19 7 38 -14 35 -37z"/>
<path d="M3880 920 c-9 -17 -8 -20 10 -20 11 0 20 5 20 10 0 6 7 10 16 10 23
0 11 -24 -16 -30 -28 -7 -45 -32 -37 -53 5 -13 19 -16 57 -16 l50 2 0 46 c0
26 -5 52 -12 59 -20 20 -76 15 -88 -8z m60 -65 c0 -8 -6 -15 -14 -15 -17 0
-28 14 -19 24 12 12 33 6 33 -9z"/>
</g>
</svg>
