<svg id="Capa_1" data-name="Capa 1" xmlns="http://www.w3.org/2000/svg" viewBox="0 0 841.89 595.28"><defs><style>.cls-1{fill:#00acff;}</style></defs><polygon class="cls-1" points="133.48 147.2 128.92 134.41 101.11 134.41 96.54 147.2 85.66 147.2 85.66 157.75 144.21 157.75 144.21 147.2 133.48 147.2"/><polygon class="cls-1" points="153.2 38.6 153.2 47 180.34 47 180.34 126.04 153.2 126.04 153.2 134.16 189.39 134.16 189.39 38.6 153.2 38.6"/><polygon class="cls-1" points="75.84 38.49 75.84 46.9 48.7 46.9 48.7 125.94 75.84 125.94 75.84 134.06 39.66 134.06 39.66 38.49 75.84 38.49"/><path class="cls-1" d="M101.41,88.69l4-3.2a.5.5,0,0,0,.18-.45c0-.93,0-1.86,0-2.79,0-1.22,0-2.45,0-3.68v-.36a4.59,4.59,0,0,0,0-1l0-.07.07-.07h0a1,1,0,0,1,.36.16,9.76,9.76,0,0,1,3.36,3.84,10.17,10.17,0,0,1,1,5.57,10.3,10.3,0,0,1-1.63,4.67A10.5,10.5,0,0,1,106.29,94c-.23.17-.22.31-.09.54a9.19,9.19,0,0,0,6,4.73,12,12,0,0,0,4.59.29,9.52,9.52,0,0,0,3.5-1.09,11.47,11.47,0,0,0,5.27-6.86,14.79,14.79,0,0,0,.71-3.56c0-.27.13-.38.41-.37.5,0,1,0,1.51,0h8.65c.32,0,.42.08.39.42-.07.68-.08,1.36-.18,2a20.32,20.32,0,0,1-2.4,7.26,21.47,21.47,0,0,1-6,6.82,20.76,20.76,0,0,1-11.89,4.14,19.36,19.36,0,0,1-5.61-.7,19.7,19.7,0,0,1-8.58-4.89,20.94,20.94,0,0,1-4.93-7.32c0-.13-.09-.25-.24-.31a9,9,0,0,1-1.52-.83,9.62,9.62,0,0,1-3.74-4.24,10.37,10.37,0,0,1,0-8.94,7.68,7.68,0,0,1,3.45-3.71c.47-.25.6-.15.6.38,0,2.38,0,4.77-.06,7.15a.84.84,0,0,0,.41.75l.27.19c1.24,1,2.5,2,3.74,3,.27.22.45.21.62-.09"/><path class="cls-1" d="M115.38,64.31H116c.62.1,1.24.09,1.87.13l.14,0a.79.79,0,0,0,.5.06h.15a2.38,2.38,0,0,0,.64.15h0c0,1.08,0,2.16,0,3.24,0,.2,0,.3.27.34.42.09.83.22,1.24.35.15.05.26.05.33-.1a1.23,1.23,0,0,0,.17-.41h0a1.73,1.73,0,0,0,.36-.65h0l0-.07,0,0,0,0,0-.1a1.54,1.54,0,0,0,.36-.65h0a1.87,1.87,0,0,0,.34-.6c.12-.29.29-.31.57-.2a22.3,22.3,0,0,1,6.11,3.63c.28.23.34.39.14.72-.47.75-.87,1.54-1.31,2.31a.38.38,0,0,0,.07.57,8.65,8.65,0,0,1,.79.81c.18.22.33.21.55.08.77-.47,1.56-.92,2.33-1.4.24-.15.37-.1.53.11a24.53,24.53,0,0,1,3.57,6.33c.11.29.09.46-.2.63-.77.42-1.51.91-2.28,1.34a.42.42,0,0,0-.23.59,6.56,6.56,0,0,1,.27,1.08.35.35,0,0,0,.41.34c.88,0,1.75,0,2.62,0,.38,0,.51.12.54.49.06.8.16,1.6.25,2.41,0,.26-.06.34-.32.34H126.33c-.22,0-.34,0-.37-.31a10.3,10.3,0,0,0-2-5.35,11.47,11.47,0,0,0-3.58-3.21,10.22,10.22,0,0,0-6.77-1.2,9.77,9.77,0,0,0-4.32,1.81.48.48,0,0,1-.75,0,20.12,20.12,0,0,0-2.47-2,.28.28,0,0,0-.43,0c-.7.73-1.4,1.46-2.11,2.18a.73.73,0,0,0-.17.58c0,2,0,4.1.05,6.14a.83.83,0,0,1-.36.76c-.73.55-1.46,1.12-2.17,1.69a.33.33,0,0,1-.5,0c-.71-.59-1.42-1.17-2.15-1.73a.73.73,0,0,1-.32-.68c0-2,0-4,0-6.07a.83.83,0,0,0-.27-.69c-.5-.5-1-1-1.47-1.52-.11-.11-.21-.21-.12-.38a18.26,18.26,0,0,1,2.54-3.76h.08a5.49,5.49,0,0,0,1.14.67h0a4.19,4.19,0,0,0,1.14.66h0c.09.14.25.19.37.28s.22.1.31,0a9.1,9.1,0,0,1,1.06-1.09.18.18,0,0,0,0-.26,5.52,5.52,0,0,0-.48-.77h0a18.22,18.22,0,0,0-1-1.85.35.35,0,0,1,.11-.52l.8-.68h0a5.18,5.18,0,0,0,1-.74h0a1.27,1.27,0,0,0,.57-.36h0a.22.22,0,0,0,.21-.14l.08,0,.06,0h0l2.36-1.26h0a3.41,3.41,0,0,0,.86-.36l.07,0,.5-.13h0a.26.26,0,0,0,.14.21h0a.63.63,0,0,0,.21.36h0a16.18,16.18,0,0,0,1.15,2.08h0c.05.31.21.37.48.26a4.24,4.24,0,0,1,1-.29c.3,0,.42-.17.41-.51,0-.78,0-1.56,0-2.34s0-.73.64-.9l0,0,.14,0Z"/><path class="cls-1" d="M105.69,77.09l-.07.07Z"/><path class="cls-1" d="M148.46,50.54h9.84c.32,0,.45,0,.41.42-.2,2-.37,4-.55,6.06l-.63,7.19c-.21,2.38-.43,4.76-.64,7.15a.31.31,0,0,1-.27.32l-8,2.2a.85.85,0,0,1-.5,0l-7.93-2.19c-.2-.05-.25-.17-.27-.36q-.34-4-.71-8.1l-.78-8.6c-.11-1.23-.21-2.47-.33-3.7,0-.31.07-.39.38-.39Zm-.05,4.28h0c-2,0-4,0-6,0-.35,0-.44.08-.41.44q.35,3.5.64,7c0,.32.14.38.44.38h8.16c.34,0,.41.09.37.41-.09.84-.17,1.69-.23,2.54a.5.5,0,0,1-.44.52l-2.18.59a1.06,1.06,0,0,1-.53,0c-.8-.22-1.59-.44-2.39-.64a.33.33,0,0,1-.29-.35c0-.51-.09-1-.13-1.52,0-.2-.07-.28-.28-.27-.69,0-1.39,0-2.08,0-.22,0-.26.08-.24.29.12,1.18.22,2.36.32,3.54,0,.11,0,.23.14.27.68.19,1.36.41,2,.6a23.62,23.62,0,0,1,2.36.68,1.34,1.34,0,0,0,.83.16l5-1.4a.31.31,0,0,0,.27-.32c.21-2.43.42-4.87.66-7.3,0-.37-.09-.42-.41-.41-1.65,0-3.3,0-5,0h-3.71c-.15,0-.34.06-.34-.21a16.11,16.11,0,0,0-.21-2.08c0-.24,0-.37.33-.37,1.11,0,2.23,0,3.35,0,2,0,3.94,0,5.91,0,.22,0,.3-.05.34-.29.1-.66.05-1.33.18-2,.05-.27,0-.34-.3-.33Z"/><path class="cls-1" d="M80.33,51.1H90.51c.31,0,.38.07.35.38-.21,2.31-.41,4.61-.61,6.92l-.6,6.55-.39,4.57c-.09,1-.18,2-.26,2.94a.27.27,0,0,1-.24.29L80.48,75a.63.63,0,0,1-.36,0l-8.25-2.29a.25.25,0,0,1-.22-.27c-.09-1-.19-2-.28-3.06q-.28-3-.55-6.08c-.19-2.22-.37-4.44-.57-6.65-.15-1.67-.31-3.34-.46-5-.06-.67-.08-.57.51-.57h10Zm0,4.21h-6.3c-.27,0-.38,0-.34.34.08.7.13,1.39.19,2.09,0,.16.08.22.23.22H83.7c.28,0,.35.08.32.35-.08.67-.15,1.34-.18,2,0,.28-.11.33-.37.33-2,0-4,0-6,0-.23,0-.31,0-.29.29.07.67.15,1.33.18,2,0,.33.16.35.42.35h5.47c.17,0,.33,0,.3.25-.11,1-.21,1.93-.28,2.9a.34.34,0,0,1-.33.38c-.89.14-1.72.47-2.58.66a.44.44,0,0,1-.2,0c-.85-.25-1.69-.49-2.54-.71-.22,0-.28-.15-.29-.36,0-.52-.1-1-.13-1.58,0-.18-.08-.24-.27-.24H74.77c-.19,0-.25.06-.23.25.11,1.22.23,2.45.34,3.68,0,.18.09.26.27.31.54.13,1.08.28,1.62.44,1.13.32,2.28.59,3.4,1a.61.61,0,0,0,.3,0c1.67-.47,3.33-.93,5-1.38a.4.4,0,0,0,.34-.4c.14-1.75.31-3.5.47-5.25.22-2.57.44-5.13.67-7.7,0-.19,0-.25-.23-.25Z"/><path class="cls-1" d="M148.93,92.32c0-1,0-2.71,0-4.39a1.57,1.57,0,0,1,1-1.59c3.74-2,7.46-4,11.19-6a1.78,1.78,0,0,1,1.79-.09q5.79,3,11.61,5.85a1.39,1.39,0,0,1,.91,1.37q.09,5.91.26,11.83a1.46,1.46,0,0,1-.87,1.51q-5.73,3.06-11.43,6.13a1.52,1.52,0,0,1-1.63.07q-5.85-3-11.75-5.9a1.3,1.3,0,0,1-.85-1.22C148.9,97.59,149,95.28,148.93,92.32Zm16.62,5.34c1.85,0,3.19-.83,3.47-2.08.33-1.46-.36-2.53-2.15-3.32-.61-.28-1.25-.5-1.84-.81s-.87-.65-.45-1.22A1.16,1.16,0,0,1,166,90a2.66,2.66,0,0,1,.53.37c.73.49,1-.23,1.48-.45.63-.3.1-.65-.14-.86a3.6,3.6,0,0,0-3.55-.7,2.36,2.36,0,0,0-2,2,2.48,2.48,0,0,0,1.5,2.8c.76.37,1.56.67,2.33,1,.46.22.81.56.65,1.1s-.63.68-1.15.73a2.25,2.25,0,0,1-1.94-.73c-.77-.8-1.24.1-1.71.32-.63.31,0,.71.26,1A4.65,4.65,0,0,0,165.55,97.66Zm-5-5.54h0c0-1-.05-2,0-3,0-.7-.21-.93-1-.9s-1.23,0-1.19.89c.07,1.76,0,3.53,0,5.3,0,.51.13,1.11-.57,1.4s-1.18-.06-1.67-.5c-.69-.64-1.05.22-1.57.37s-.25.47-.08.67a3.43,3.43,0,0,0,2.92,1.39c2.21-.29,3-1.15,3.11-2.7C160.55,94.09,160.51,93.11,160.51,92.12Z"/><path class="cls-1" d="M85.17,119.39c-.71-.28-1.39-.52-2.06-.82a5.72,5.72,0,0,1-1.89-1.27,2.38,2.38,0,0,1,0-3.6A7.43,7.43,0,0,1,84,112l1.15-.4c-.11-.74-.28-1.46-.32-2.18a8.75,8.75,0,0,1,.12-2.11,2.43,2.43,0,0,1,3.42-1.91,9,9,0,0,1,3.07,2l.36.33.06,0c.48-.39.94-.81,1.44-1.18a5.84,5.84,0,0,1,2.86-1.29,2.24,2.24,0,0,1,2.4,1.38,5.37,5.37,0,0,1,.34,2.83c-.08.71-.21,1.42-.32,2.14.48.18,1,.35,1.48.54a7.24,7.24,0,0,1,2.36,1.44,2.4,2.4,0,0,1,0,3.74,5.63,5.63,0,0,1-.9.71,10.06,10.06,0,0,1-2.68,1.19l-.29.11c.11.73.24,1.43.32,2.14a5.75,5.75,0,0,1-.2,2.47,2.35,2.35,0,0,1-3,1.67,8.25,8.25,0,0,1-3.19-1.88l-.59-.53a12.63,12.63,0,0,1-1.06.9,14.65,14.65,0,0,1-2.18,1.31c-2,.84-3.5-.11-3.78-2.23a9.84,9.84,0,0,1,.24-3.38C85.11,119.67,85.14,119.52,85.17,119.39Zm6.66-.23h0c.61,0,1.22,0,1.83,0a.66.66,0,0,0,.44-.25c.63-1.06,1.25-2.13,1.85-3.2a.45.45,0,0,0,0-.39c-.62-1.1-1.25-2.2-1.9-3.28a.44.44,0,0,0-.33-.19c-1.25,0-2.49,0-3.73,0a.53.53,0,0,0-.37.2c-.64,1.08-1.26,2.16-1.88,3.26a.46.46,0,0,0,0,.38c.61,1.09,1.23,2.16,1.87,3.23a.6.6,0,0,0,.41.24C90.63,119.18,91.23,119.16,91.83,119.16Zm-6.43-.77c.38-1,.75-1.87,1.11-2.79a.45.45,0,0,0,0-.28c-.32-.84-.65-1.68-1-2.53-.06-.16-.14-.2-.29-.15a9.07,9.07,0,0,0-3,1.43c-1.17.93-1.16,1.93,0,2.85A9.09,9.09,0,0,0,85.4,118.39Zm12.91,0a8.75,8.75,0,0,0,3.29-1.59,1.53,1.53,0,0,0,0-2.64,8.83,8.83,0,0,0-3.12-1.53c-.16,0-.22,0-.28.18-.31.83-.64,1.66-1,2.5a.45.45,0,0,0,0,.3C97.56,116.53,97.92,117.43,98.31,118.39Zm-12.19-7c.95-.14,1.85-.29,2.76-.4a.74.74,0,0,0,.55-.33c.37-.5.76-1,1.15-1.47l.58-.68c-.31-.27-.58-.54-.88-.78A6.7,6.7,0,0,0,88,106.33a1.46,1.46,0,0,0-2.07,1.18A8.19,8.19,0,0,0,86.12,111.35Zm11.47,0a9.2,9.2,0,0,0,.34-3,4.51,4.51,0,0,0-.32-1.35,1.17,1.17,0,0,0-1.31-.75,3,3,0,0,0-1,.28c-.66.37-1.29.81-1.91,1.24a8.72,8.72,0,0,0-.78.69l1.85,2.35a.38.38,0,0,0,.18.11Zm-5,11.19.61.55a7.14,7.14,0,0,0,2.58,1.57,1.46,1.46,0,0,0,2.06-1.19,8.25,8.25,0,0,0-.23-3.82,1.21,1.21,0,0,0-.18,0l-2.75.43a.38.38,0,0,0-.24.13Zm-1.44,0-1.85-2.35a.52.52,0,0,0-.28-.13l-2.62-.41c-.18,0-.28,0-.31.2s-.12.51-.16.77a7.1,7.1,0,0,0,0,2.83A1.46,1.46,0,0,0,88,124.65,8.32,8.32,0,0,0,91.13,122.53Zm-.64-2.35,1.37,1.63,1.35-1.63Zm-2-1.15-1.37-2.38-.74,2Zm8.86-.37-.75-2L95.23,119Zm0-6.34L95.23,112l1.37,2.37ZM88.48,112l-2.11.37.74,2Zm4.73-1.16-1.36-1.62-1.34,1.62Z"/><path class="cls-1" d="M93.9,115.47a2,2,0,1,1-2-2A2,2,0,0,1,93.9,115.47Z"/><path class="cls-1" d="M66.91,99.81v.93h6.42c0,.76,0,1.46,0,2.17,0,2.12-.68,3-2.7,3.51a16.12,16.12,0,0,1-5.18.32,7.68,7.68,0,0,1-3.22-.86A3,3,0,0,1,60.55,103c.05-1.94,0-3.88,0-5.81A3.18,3.18,0,0,1,62,94.39a4,4,0,0,1,2.21-.63H70.4a4.07,4.07,0,0,0,2.1-.5,3.35,3.35,0,0,0,1.64-2.65c.1-1.08.06-2.17.08-3.25,0-.22,0-.43,0-.66a1.18,1.18,0,0,1,.25,0,17,17,0,0,1,2.26,0,3.47,3.47,0,0,1,2.72,2.39,9.05,9.05,0,0,1,.66,3,12.62,12.62,0,0,1-.29,4.2,5,5,0,0,1-1.48,2.61,3.47,3.47,0,0,1-2.35.88H66.91Zm3.66,2.56a1.2,1.2,0,0,0-1.17,1.22,1.23,1.23,0,0,0,1.17,1.2,1.2,1.2,0,0,0,1.18-1.22A1.17,1.17,0,0,0,70.57,102.37Z"/><path class="cls-1" d="M62.17,86.9h4.49c.34,0,.45-.12.42-.47,0-.62,0-.62-.64-.62H61.1c-.35,0-.47-.13-.47-.49,0-.87-.05-1.75,0-2.62A2.33,2.33,0,0,1,62,80.81,7.79,7.79,0,0,1,65.22,80a15.52,15.52,0,0,1,4.51.19,6.34,6.34,0,0,1,2.45,1,2.45,2.45,0,0,1,1.07,1.95c0,2.24,0,4.48,0,6.71a2.8,2.8,0,0,1-1.53,2.46,5.16,5.16,0,0,1-2.49.53c-1.66,0-3.31,0-5,0a5.33,5.33,0,0,0-2.93.57A3.32,3.32,0,0,0,60,94.9a5.66,5.66,0,0,0-.4,2.38c0,.7,0,1.4,0,2.1,0,.47-.05.53-.53.53s-1.17,0-1.76,0a2.87,2.87,0,0,1-2.08-1.14A7.77,7.77,0,0,1,53.79,94a11.2,11.2,0,0,1,.31-3.6,5.28,5.28,0,0,1,1-2.13,3.46,3.46,0,0,1,2.72-1.33Zm1.13-5.09a1.28,1.28,0,0,0-1.25,1.29,1.39,1.39,0,0,0,1.27,1.27,1.37,1.37,0,0,0,1.22-1.31A1.24,1.24,0,0,0,63.3,81.81Z"/><path class="cls-1" d="M141.48,99.83a2.14,2.14,0,0,1,.48,1.29,4.43,4.43,0,0,1-1.53,3.94,31.59,31.59,0,0,0-2.78,2.77,6.9,6.9,0,0,0-.63.87,2.09,2.09,0,0,0-.18,1.87,11.89,11.89,0,0,0,1.35,2.57c.14.21.29.42.42.64a13.29,13.29,0,0,1-1.11-1.14,14.86,14.86,0,0,1-1.72-2.21l-.24-.44a1.87,1.87,0,0,1,.33-2.12,13.41,13.41,0,0,1,2.22-2.17c.67-.57,1.4-1.09,2-1.71a4.54,4.54,0,0,0,1.43-3.33A7.74,7.74,0,0,0,141.48,99.83Z"/><path class="cls-1" d="M146.85,122a.55.55,0,0,1,.24.17.33.33,0,0,1,0,.53,2.9,2.9,0,0,1-1,.61,11,11,0,0,1-2.83.74,49.63,49.63,0,0,1-8.53.34,25.93,25.93,0,0,1-4-.38,5.16,5.16,0,0,1-1.16-.34c-.49-.22-.54-.6-.12-.94a3.67,3.67,0,0,1,1.48-.66,7.12,7.12,0,0,1,2.34-.27l-1,.19a4.55,4.55,0,0,0-1.06.35l-.11.06c-.14.1-.31.19-.29.38s.2.25.34.3a8.17,8.17,0,0,0,1.88.39,42.3,42.3,0,0,0,8.19.11,33.89,33.89,0,0,0,3.62-.37,5.53,5.53,0,0,0,1.82-.53C147,122.5,147,122.35,146.85,122Z"/><path class="cls-1" d="M144.5,105.08c-.47.31-.94.61-1.41.93a11,11,0,0,0-2.16,1.81l-.12.15a1.6,1.6,0,0,0-.11,2.2,11.42,11.42,0,0,1,.88,1.51,1.71,1.71,0,0,1-.22,1.8,4.75,4.75,0,0,1-1.44,1.27c-.06-.12,0-.16.05-.22a6,6,0,0,0,.36-.6,1.27,1.27,0,0,0,0-1.33c-.24-.4-.52-.76-.78-1.14a2.89,2.89,0,0,1-.49-2.77,3.71,3.71,0,0,1,1.26-1.62A11.79,11.79,0,0,1,144.5,105.08Z"/><path class="cls-1" d="M142.89,121.09a15.79,15.79,0,0,1-2.6.67,12.78,12.78,0,0,1-4.49-.07,3.92,3.92,0,0,1-1.32-.46c-.5-.31-.51-.74,0-1.06a1.67,1.67,0,0,1,.75-.3c-.08.14-.17.28-.09.42a.64.64,0,0,0,.42.25,3,3,0,0,0,.89.12,25,25,0,0,0,3.87-.12,6.37,6.37,0,0,0,1-.18c.08,0,.15,0,.23,0A9.6,9.6,0,0,0,142.89,121.09Z"/><path class="cls-1" d="M134.63,117a.18.18,0,0,0,0,0c-.38.44-.31.65.25.83a4.26,4.26,0,0,0,1.18.17,29.73,29.73,0,0,0,6-.41.43.43,0,0,1,.38.11,2.26,2.26,0,0,0,.9.5,14.89,14.89,0,0,1-2.39.59,19.16,19.16,0,0,1-5.24.06,7.09,7.09,0,0,1-1.65-.32,1.63,1.63,0,0,1-.38-.17.49.49,0,0,1-.17-.79,1.69,1.69,0,0,1,1-.58Z"/><path class="cls-1" d="M144.26,115a3.74,3.74,0,0,1-1.95.83c-1.67.19-3.33.41-5,.47a30.12,30.12,0,0,1-3.68-.15,9.42,9.42,0,0,1-1.9-.31c-.19-.06-.43-.09-.46-.32s.2-.32.37-.41a8.18,8.18,0,0,1,1.1-.45,10.58,10.58,0,0,1,1.46-.42,6.3,6.3,0,0,1,1.44-.17l-.85.24a5.31,5.31,0,0,0-1.33.54c-.14.09-.31.17-.28.36s.22.19.37.22a11.42,11.42,0,0,0,2.33.22,40.73,40.73,0,0,0,6.43-.37C143,115.17,143.59,115.07,144.26,115Z"/><path class="cls-1" d="M132.84,125l1.94.16a48.52,48.52,0,0,0,6.38.09,19.64,19.64,0,0,0,5.26-.88,6.55,6.55,0,0,0,1.87-1,.28.28,0,0,1,.11,0,1.39,1.39,0,0,1-.55.74,6.07,6.07,0,0,1-2.51,1.09,26.18,26.18,0,0,1-4,.54c-1,.08-2.08.1-3.12.08a20.64,20.64,0,0,1-4.88-.61l-.47-.14Z"/><path class="cls-1" d="M145,114.16a1.4,1.4,0,0,1,.8-.36,2.35,2.35,0,0,1,2.1.62,1.75,1.75,0,0,1,0,2.49,5.7,5.7,0,0,1-2.2,1.52,7.44,7.44,0,0,1-1.31.43c.4-.28.82-.52,1.2-.82a5.71,5.71,0,0,0,1.49-1.57,1.77,1.77,0,0,0,.25-1.15,1.3,1.3,0,0,0-1-1.15A3,3,0,0,0,145,114.16Z"/><path class="cls-1" d="M51.12,188.42q-10.63,0-10.64-10.36,0-4.91,2.68-7.61c1.79-1.8,4.31-2.7,7.58-2.7a11,11,0,0,1,3.92.65,5.5,5.5,0,0,1,2.58,1.83L54.93,173a4.66,4.66,0,0,0-1.8-1.23,6.47,6.47,0,0,0-2.36-.43A5.67,5.67,0,0,0,46.46,173a6.85,6.85,0,0,0-1.62,4.88q0,6.93,6.81,6.94a12.49,12.49,0,0,0,4.48-.85l.72,3.45A17.1,17.1,0,0,1,51.12,188.42Z"/><path class="cls-1" d="M67.6,188.42q-8.47,0-8.47-10.19,0-10.47,8.47-10.48t8.48,10.48Q76.08,188.43,67.6,188.42Zm0-3.56q4.14,0,4.14-6.63c0-4.6-1.38-6.91-4.14-6.91s-4.13,2.31-4.13,6.91C63.47,182.65,64.84,184.86,67.6,184.86Z"/><path class="cls-1" d="M78.93,188.14V168h4.14v20.1Zm3.92,0v-3.57h1.74A6.08,6.08,0,0,0,89.17,183a6.37,6.37,0,0,0,1.53-4.62,7.35,7.35,0,0,0-1.53-5.05,5.84,5.84,0,0,0-4.58-1.71H82.91L82.54,168h2Q95,168,95,178.37q0,9.76-10.45,9.77Z"/><path class="cls-1" d="M98.05,188.14V168h4.13v20.1Zm0-16.66V168h15.26v3.44Zm0,8.32v-3.45h12.44v3.45Zm0,8.34V184.7h15.26v3.44Z"/><path class="cls-1" d="M115.6,171.48V168h16.82v3.44Zm6.34,16.66V168h4.14v20.1Z"/><path class="cls-1" d="M135.65,188.14V168h4.14v20.1Zm0-16.66V168h15.26v3.44Zm0,8.32v-3.45h12.44v3.45Zm0,8.34V184.7h15.26v3.44Z"/><path class="cls-1" d="M163.93,188.42q-10.63,0-10.63-10.36,0-4.91,2.68-7.61t7.58-2.7a11.07,11.07,0,0,1,3.92.65,5.55,5.55,0,0,1,2.58,1.83L167.74,173a4.69,4.69,0,0,0-1.79-1.23,6.51,6.51,0,0,0-2.36-.43,5.68,5.68,0,0,0-4.32,1.72,6.85,6.85,0,0,0-1.62,4.88q0,6.93,6.82,6.94A12.53,12.53,0,0,0,169,184l.72,3.45A17.16,17.16,0,0,1,163.93,188.42Z"/><path class="cls-1" d="M172.94,188.14V168h4.14v20.1Zm.66-8.28V176.4h13.71v3.46Zm10.16,8.28V168h4.13v20.1Z"/><path class="cls-1" d="M61.51,206.35a15.15,15.15,0,0,1-2.3-.17,9.89,9.89,0,0,1-2-.5L57.5,204a15,15,0,0,0,2.15.61,10.12,10.12,0,0,0,2,.21,4.13,4.13,0,0,0,2.1-.42,1.38,1.38,0,0,0,.69-1.27,1.69,1.69,0,0,0-1.31-1.59l-2.49-1a6.31,6.31,0,0,1-2.26-1.36,2.69,2.69,0,0,1-.78-2,2.93,2.93,0,0,1,1.13-2.46,5.19,5.19,0,0,1,3.21-.87,8.28,8.28,0,0,1,2.56.36,6.88,6.88,0,0,1,2.15,1.17l-1.42,1.21a7.17,7.17,0,0,0-1.66-.89,4.68,4.68,0,0,0-1.62-.28,2.68,2.68,0,0,0-1.61.42,1.48,1.48,0,0,0-.57,1.26,1.3,1.3,0,0,0,.37,1,3.58,3.58,0,0,0,1.1.66l2.11.83A7.56,7.56,0,0,1,65.8,201a2.71,2.71,0,0,1,.83,2,2.76,2.76,0,0,1-1.27,2.48A7.18,7.18,0,0,1,61.51,206.35Z"/><path class="cls-1" d="M75,206.35q-5.3,0-5.3-6.15,0-6.31,5.3-6.32t5.31,6.32Q80.35,206.35,75,206.35Zm0-1.57c2.1,0,3.14-1.53,3.14-4.58s-1-4.75-3.14-4.75S71.9,197,71.9,200.2,73,204.78,75,204.78Z"/><path class="cls-1" d="M83.63,206.18V194.05h2.1v12.13Zm0,0v-1.62h9.51v1.62Z"/><path class="cls-1" d="M101.08,206.35c-3.07,0-4.61-1.35-4.61-4.07v-8.23h2.1v8.23a2.48,2.48,0,0,0,.62,1.83,2.65,2.65,0,0,0,1.93.62c1.7,0,2.55-.82,2.55-2.45v-8.23h2.11v8.23a3.78,3.78,0,0,1-1.19,3.05A5.29,5.29,0,0,1,101.08,206.35Z"/><path class="cls-1" d="M108.9,195.67v-1.62h10.53v1.62Zm4.21,10.51V194.05h2.11v12.13Z"/><path class="cls-1" d="M122.83,195.67v-1.62h8.75v1.62Zm0,10.51v-1.62h8.75v1.62Zm3.31,0V194.05h2.11v12.13Z"/><path class="cls-1" d="M140.24,206.35q-5.3,0-5.3-6.15,0-6.31,5.3-6.32t5.31,6.32Q145.55,206.35,140.24,206.35Zm0-1.57c2.1,0,3.14-1.53,3.14-4.58s-1-4.75-3.14-4.75-3.13,1.58-3.13,4.75S138.15,204.78,140.24,204.78Z"/><path class="cls-1" d="M148.71,206.18V194.05h2.1v12.13Zm6.44,0L151,197h-.93v-2.9h1.33l4.13,9.23h.51v2.9Zm.61,0V194.05h2.1v12.13Z"/><path class="cls-1" d="M165.83,206.35a14.92,14.92,0,0,1-2.29-.17,9.56,9.56,0,0,1-2-.5l.26-1.72a15,15,0,0,0,2.15.61,10.2,10.2,0,0,0,2,.21,4.15,4.15,0,0,0,2.11-.42,1.38,1.38,0,0,0,.69-1.27,1.69,1.69,0,0,0-1.32-1.59l-2.49-1a6.17,6.17,0,0,1-2.25-1.36,2.66,2.66,0,0,1-.79-2,2.91,2.91,0,0,1,1.14-2.46,5.15,5.15,0,0,1,3.21-.87,8.38,8.38,0,0,1,2.56.36,6.84,6.84,0,0,1,2.14,1.17l-1.41,1.21a7.21,7.21,0,0,0-1.67-.89,4.62,4.62,0,0,0-1.61-.28,2.69,2.69,0,0,0-1.62.42,1.48,1.48,0,0,0-.57,1.26,1.3,1.3,0,0,0,.37,1,3.53,3.53,0,0,0,1.11.66l2.1.83a7.56,7.56,0,0,1,2.43,1.43,2.68,2.68,0,0,1,.83,2,2.76,2.76,0,0,1-1.27,2.48A7.18,7.18,0,0,1,165.83,206.35Z"/></svg>